<svg id="svg" version="1.1" xmlns="http://www.w3.org/2000/svg" xmlns:xlink="http://www.w3.org/1999/xlink" width="400" height="188.56526429341963" viewBox="0, 0, 400,188.56526429341963"><g id="svgg"><path id="path1" d="M185.417 4.828 C 179.175 5.378,173.429 7.628,168.560 11.430 C 167.234 12.466,167.159 12.500,166.220 12.501 C 164.462 12.502,163.587 13.420,163.618 15.231 C 163.635 16.165,163.593 16.269,162.756 17.402 C 159.422 21.910,157.312 27.236,156.744 32.576 C 156.633 33.619,156.562 33.787,156.045 34.243 C 155.274 34.922,155.000 35.495,155.000 36.430 C 155.000 37.162,155.502 38.333,155.815 38.333 C 156.313 38.333,156.632 39.051,156.826 40.611 C 157.545 46.369,161.176 54.255,164.481 57.234 C 164.775 57.499,164.833 57.742,164.833 58.708 C 164.833 59.786,165.171 60.833,165.518 60.833 C 166.252 60.833,166.667 61.821,166.667 63.570 L 166.667 65.339 165.761 67.145 C 160.994 76.650,161.117 88.186,166.093 98.208 C 167.231 100.500,167.248 100.507,168.065 99.042 C 173.543 89.211,173.640 76.300,168.314 65.798 C 168.069 65.316,168.000 64.815,168.000 63.520 C 168.000 60.879,168.086 60.840,170.414 62.419 C 175.020 65.542,180.189 67.303,186.083 67.757 C 188.119 67.914,188.000 67.704,187.999 71.145 L 187.998 74.083 187.112 75.833 C 181.595 86.733,181.647 99.289,187.257 110.958 C 188.666 113.890,188.574 113.826,189.389 112.431 C 195.718 101.612,195.993 86.623,190.073 75.128 C 189.684 74.374,189.667 74.202,189.667 71.176 C 189.667 67.632,189.655 67.667,190.908 67.667 C 195.239 67.667,202.308 64.998,206.854 61.647 C 208.822 60.196,209.333 60.567,209.333 63.449 L 209.333 65.397 208.495 67.110 C 203.607 77.093,203.942 89.881,209.338 99.292 C 209.965 100.385,210.026 100.381,210.707 99.208 C 216.049 90.013,216.418 77.122,211.624 67.189 C 210.939 65.769,210.929 65.722,210.868 63.632 L 210.807 61.513 211.556 60.785 C 212.525 59.843,212.764 59.042,212.418 57.900 C 212.080 56.785,212.040 56.912,213.239 55.309 C 216.520 50.922,218.409 46.440,219.260 41.022 L 219.558 39.128 220.320 38.658 C 222.159 37.526,222.229 35.151,220.452 34.165 C 219.583 33.682,219.547 33.628,219.414 32.591 C 218.684 26.917,216.888 22.277,213.672 17.755 C 213.133 16.996,213.083 16.829,213.083 15.755 C 213.083 13.852,212.215 13.000,210.276 13.000 C 209.641 13.000,209.307 12.919,209.146 12.725 C 208.784 12.289,205.876 10.148,204.461 9.275 C 199.073 5.951,191.839 4.262,185.417 4.828 M189.691 5.664 C 196.556 6.315,201.760 8.260,206.667 12.006 C 208.571 13.460,208.761 13.702,208.414 14.230 C 208.104 14.704,208.028 15.608,208.224 16.500 C 208.383 17.222,203.820 22.004,203.216 21.748 C 201.524 21.033,200.609 21.036,199.515 21.760 C 198.646 22.335,199.039 22.645,193.169 16.762 L 188.088 11.669 182.973 16.774 C 178.826 20.913,177.801 21.854,177.554 21.750 C 176.170 21.166,175.927 21.129,174.857 21.337 L 173.797 21.543 171.155 18.905 L 168.512 16.266 168.610 15.331 C 168.682 14.642,168.637 14.259,168.437 13.873 C 168.044 13.113,168.048 13.105,169.458 12.033 C 174.388 8.287,179.549 6.333,186.250 5.675 C 186.983 5.603,187.669 5.534,187.774 5.522 C 187.879 5.510,188.741 5.574,189.691 5.664 M197.429 22.814 C 197.279 23.055,179.040 23.074,178.667 22.833 C 178.467 22.704,179.384 21.705,183.211 17.881 L 188.006 13.090 192.775 17.859 C 195.588 20.672,197.497 22.704,197.429 22.814 M165.030 17.265 C 165.377 17.445,165.855 17.512,166.513 17.474 L 167.484 17.417 170.165 20.073 C 172.748 22.632,172.841 22.748,172.715 23.240 C 172.516 24.010,172.609 25.238,172.909 25.819 C 173.280 26.536,173.424 26.360,168.366 31.375 L 163.869 35.833 162.101 35.833 C 160.194 35.833,160.190 35.832,159.436 34.747 C 159.263 34.498,158.795 34.150,158.394 33.973 C 157.759 33.692,157.606 33.530,157.633 33.165 C 158.004 28.155,161.087 20.560,164.043 17.375 C 164.458 16.928,164.392 16.936,165.030 17.265 M212.807 18.299 C 214.944 20.999,217.007 25.547,217.885 29.500 C 218.739 33.342,218.738 33.641,217.877 34.164 C 217.585 34.342,217.154 34.791,216.920 35.161 L 216.496 35.833 214.386 35.833 L 212.277 35.833 207.972 31.549 C 203.285 26.884,203.279 26.877,203.858 26.106 C 204.204 25.645,204.250 25.401,204.250 24.045 L 204.250 22.507 205.750 20.992 C 206.575 20.158,207.681 19.099,208.207 18.639 L 209.165 17.802 209.957 17.998 C 210.610 18.159,210.868 18.149,211.417 17.942 C 212.312 17.604,212.241 17.585,212.807 18.299 M197.822 23.990 C 197.954 24.073,198.164 24.503,198.291 24.945 C 198.788 26.686,199.067 26.240,194.998 30.219 C 191.024 34.103,191.183 33.986,190.524 33.517 C 189.454 32.755,187.829 32.687,186.589 33.351 L 185.956 33.691 182.201 29.947 L 178.447 26.203 178.664 25.180 C 178.786 24.604,178.998 24.088,179.149 24.000 C 179.498 23.796,197.500 23.786,197.822 23.990 M174.570 27.268 C 174.800 27.356,174.833 27.887,174.833 31.500 C 174.833 35.113,174.800 35.644,174.570 35.732 C 174.068 35.925,165.861 35.846,165.738 35.648 C 165.613 35.444,173.783 27.167,174.110 27.167 C 174.218 27.167,174.425 27.212,174.570 27.268 M181.184 30.964 C 185.071 34.831,185.519 35.432,184.736 35.732 C 184.145 35.959,176.215 35.843,176.017 35.604 C 175.884 35.443,175.840 34.214,175.872 31.484 L 175.917 27.593 176.333 27.382 C 177.130 26.980,177.325 27.124,181.184 30.964 M200.232 27.430 C 200.435 27.958,200.345 35.422,200.133 35.633 C 199.909 35.857,192.391 35.925,192.071 35.706 C 191.409 35.252,191.587 35.013,195.531 31.055 C 199.381 27.193,199.968 26.741,200.232 27.430 M206.314 31.398 C 208.697 33.782,210.329 35.539,210.262 35.648 C 210.139 35.846,202.098 35.925,201.597 35.732 C 201.367 35.644,201.333 35.120,201.333 31.579 C 201.333 27.402,201.337 27.381,202.001 27.346 C 202.139 27.339,204.080 29.162,206.314 31.398 M168.916 41.666 C 174.180 46.928,174.038 46.749,173.422 47.328 C 172.513 48.182,172.324 49.768,172.969 51.124 L 173.250 51.715 170.750 54.106 L 168.250 56.496 167.281 56.498 C 166.748 56.499,166.172 56.575,166.001 56.666 C 165.496 56.936,165.210 56.707,163.923 55.008 C 160.541 50.543,158.166 44.892,157.754 40.333 L 157.641 39.083 158.529 38.667 C 159.238 38.334,159.483 38.109,159.747 37.546 C 160.150 36.690,160.168 36.684,162.291 36.721 L 163.999 36.750 168.916 41.666 M174.458 36.772 L 174.833 36.872 174.833 41.353 C 174.833 44.813,174.786 45.833,174.626 45.833 C 174.363 45.833,165.833 37.320,165.833 37.057 C 165.833 36.700,173.273 36.454,174.458 36.772 M184.700 36.875 C 184.845 36.990,185.050 37.359,185.157 37.695 C 185.263 38.031,185.459 38.397,185.592 38.507 C 185.725 38.617,185.833 38.829,185.833 38.977 C 185.833 39.329,178.169 47.000,177.819 47.000 C 177.580 47.000,176.870 46.719,176.167 46.346 C 175.760 46.131,175.709 37.170,176.112 36.875 C 176.321 36.722,177.464 36.667,180.417 36.667 C 183.381 36.667,184.505 36.721,184.700 36.875 M200.011 36.839 C 200.346 37.019,200.528 45.951,200.206 46.433 C 199.602 47.337,199.556 47.305,195.194 42.944 L 191.102 38.851 191.500 37.967 C 191.719 37.481,192.011 36.990,192.148 36.875 C 192.466 36.609,199.521 36.577,200.011 36.839 M210.070 36.768 C 210.215 36.823,210.333 36.954,210.333 37.058 C 210.333 37.319,201.804 45.833,201.543 45.833 C 201.166 45.833,201.247 36.880,201.625 36.782 C 202.071 36.665,209.769 36.653,210.070 36.768 M216.623 36.950 C 216.787 37.444,217.476 38.279,217.971 38.583 L 218.514 38.917 218.411 40.083 C 218.062 44.038,216.135 49.247,213.628 53.010 C 211.531 56.159,211.504 56.182,209.891 56.244 L 208.531 56.296 206.170 53.914 L 203.808 51.532 204.071 51.024 C 204.696 49.816,204.236 47.761,203.170 47.003 C 202.893 46.805,202.667 46.555,202.667 46.446 C 202.667 46.215,211.961 36.916,212.333 36.775 C 212.826 36.587,216.553 36.740,216.623 36.950 M194.147 43.937 C 196.638 46.406,198.330 48.205,198.262 48.314 C 198.046 48.664,178.682 48.568,178.548 48.217 C 178.465 48.003,179.455 46.937,182.609 43.841 L 186.779 39.748 188.348 39.747 L 189.917 39.746 194.147 43.937 M197.595 49.686 C 197.714 49.878,188.393 59.333,188.086 59.333 C 187.805 59.333,178.833 50.270,178.833 49.987 C 178.833 49.841,178.883 49.672,178.944 49.611 C 179.148 49.407,197.468 49.481,197.595 49.686 M199.014 51.560 C 199.778 52.428,200.742 52.768,201.932 52.590 L 202.711 52.473 205.211 54.974 C 207.043 56.806,207.684 57.548,207.606 57.751 C 207.548 57.903,207.500 58.454,207.500 58.976 L 207.500 59.925 206.125 60.931 C 196.164 68.217,182.935 68.799,172.251 62.421 C 169.993 61.073,169.429 60.535,169.654 59.947 C 169.907 59.285,169.879 58.706,169.548 57.782 L 169.260 56.980 171.622 54.635 C 173.661 52.611,174.036 52.306,174.367 52.407 C 175.807 52.848,177.085 52.587,177.901 51.684 C 178.399 51.134,178.332 51.080,183.332 56.082 L 188.079 60.831 193.087 55.832 C 198.737 50.194,198.171 50.602,199.014 51.560 M19.895 127.294 C 19.514 127.541,4.156 158.506,4.373 158.589 C 4.489 158.633,9.308 158.650,15.083 158.627 L 25.583 158.583 26.859 156.083 C 27.560 154.708,28.100 153.527,28.057 153.458 C 28.015 153.390,24.685 153.333,20.657 153.333 C 14.253 153.333,13.333 153.302,13.333 153.083 C 13.333 152.945,16.185 147.129,19.671 140.158 C 23.157 133.186,25.965 127.412,25.911 127.325 C 25.797 127.140,20.177 127.111,19.895 127.294 M41.901 127.294 C 41.721 127.415,26.167 158.309,26.167 158.545 C 26.167 158.612,32.129 158.667,39.415 158.667 L 52.664 158.667 53.071 158.208 C 53.295 157.956,54.481 156.550,55.707 155.083 L 57.935 152.417 63.884 152.373 C 69.474 152.332,69.833 152.347,69.827 152.623 C 69.824 152.784,69.608 154.154,69.347 155.667 C 69.086 157.179,68.906 158.473,68.946 158.542 C 69.123 158.842,75.306 158.683,75.400 158.375 C 75.449 158.215,75.684 156.771,75.922 155.167 C 76.161 153.563,76.421 151.837,76.499 151.333 C 76.578 150.829,76.729 149.854,76.833 149.167 C 76.938 148.479,77.087 147.504,77.165 147.000 C 77.242 146.496,77.500 144.808,77.737 143.250 C 77.973 141.692,78.320 139.442,78.507 138.250 C 78.813 136.295,79.361 132.704,79.866 129.333 C 79.969 128.646,80.060 127.896,80.068 127.667 L 80.083 127.250 76.639 127.205 L 73.194 127.160 70.940 129.788 C 69.701 131.234,67.051 134.330,65.052 136.669 C 63.052 139.008,59.029 143.715,56.110 147.128 L 50.804 153.333 43.069 153.333 C 36.203 153.333,35.333 153.304,35.333 153.076 C 35.333 152.934,36.199 151.097,37.257 148.992 L 39.181 145.167 46.648 145.167 C 53.550 145.167,54.135 145.145,54.374 144.875 C 54.659 144.553,56.833 140.233,56.833 139.987 C 56.833 139.895,53.875 139.833,49.510 139.833 C 45.095 139.833,42.148 139.771,42.089 139.676 C 42.036 139.589,42.761 137.978,43.702 136.094 L 45.411 132.670 53.581 132.627 L 61.750 132.583 63.048 130.037 C 63.763 128.636,64.302 127.417,64.247 127.328 C 64.129 127.138,42.184 127.104,41.901 127.294 M85.840 142.820 C 81.528 151.443,78.000 158.539,78.000 158.587 C 78.000 158.635,79.406 158.654,81.125 158.629 L 84.250 158.583 87.377 152.375 L 90.504 146.167 94.794 146.170 C 101.745 146.176,101.937 146.423,99.227 151.861 C 97.388 155.551,96.888 156.787,96.807 157.838 L 96.750 158.583 100.160 158.583 L 103.571 158.583 103.827 158.127 C 104.036 157.754,104.045 157.610,103.875 157.338 C 103.445 156.649,103.642 155.897,105.022 152.964 C 108.090 146.445,108.260 145.299,106.339 144.087 C 105.443 143.521,105.463 143.482,106.960 142.870 C 114.635 139.732,118.795 129.604,113.224 127.619 C 112.291 127.286,111.862 127.268,102.965 127.206 L 93.680 127.140 85.840 142.820 M121.228 127.294 C 120.984 127.453,105.667 158.086,105.667 158.416 C 105.667 158.745,111.559 158.796,111.782 158.469 C 111.856 158.360,114.279 153.582,117.167 147.850 C 122.422 137.418,122.833 136.703,122.833 137.980 C 122.833 138.351,122.905 139.389,122.993 140.286 C 123.080 141.183,123.233 142.892,123.332 144.083 C 123.431 145.275,123.585 147.075,123.674 148.083 C 123.763 149.092,123.952 151.344,124.095 153.088 C 124.237 154.832,124.405 156.782,124.468 157.421 L 124.583 158.583 127.763 158.628 L 130.944 158.674 138.722 143.072 C 143.001 134.491,146.459 127.402,146.407 127.318 C 146.246 127.057,140.561 127.128,140.304 127.395 C 140.182 127.520,137.759 132.283,134.918 137.978 C 132.077 143.673,129.697 148.333,129.629 148.333 C 129.439 148.333,129.360 147.779,129.166 145.083 C 128.996 142.699,128.883 141.324,128.507 137.000 C 128.334 135.018,128.110 132.384,127.852 129.305 C 127.770 128.327,127.653 127.446,127.592 127.347 C 127.464 127.141,121.539 127.092,121.228 127.294 M166.393 127.294 C 166.176 127.433,165.934 128.384,165.085 132.417 C 164.757 133.975,164.411 135.587,164.316 136.000 C 163.953 137.574,163.820 138.185,163.083 141.667 C 162.666 143.637,162.252 145.569,162.162 145.958 C 162.073 146.348,161.927 146.985,161.838 147.375 C 161.251 149.945,159.500 158.218,159.500 158.420 C 159.500 158.628,159.941 158.667,162.319 158.667 L 165.138 158.667 172.014 148.958 C 175.796 143.619,179.594 138.258,180.456 137.045 C 182.562 134.079,182.693 134.008,182.080 136.171 C 181.860 136.948,180.364 142.207,178.757 147.858 C 177.149 153.509,175.833 158.252,175.833 158.399 C 175.833 158.685,181.030 158.815,181.425 158.539 C 181.662 158.374,182.357 157.489,190.423 147.083 C 194.261 142.133,199.261 135.688,201.535 132.760 C 203.809 129.832,205.608 127.374,205.531 127.298 C 205.455 127.222,203.974 127.180,202.240 127.205 L 199.088 127.250 195.308 132.667 C 193.229 135.646,191.231 138.502,190.868 139.013 C 190.506 139.524,188.580 142.280,186.590 145.138 C 183.451 149.644,182.667 150.665,182.667 150.243 C 182.667 150.194,184.097 145.087,185.846 138.895 C 187.594 132.703,188.984 127.531,188.934 127.402 C 188.861 127.212,188.285 127.167,185.933 127.167 L 183.022 127.167 182.455 127.875 C 182.142 128.265,178.563 133.308,174.501 139.083 C 170.439 144.858,166.939 149.769,166.724 149.996 C 166.077 150.680,165.983 151.056,169.084 140.500 C 169.421 139.354,169.946 137.554,170.252 136.500 C 170.557 135.446,171.266 133.014,171.827 131.097 C 172.388 129.179,172.809 127.510,172.762 127.388 C 172.668 127.144,166.763 127.057,166.393 127.294 M208.368 127.375 C 208.138 127.653,192.833 158.346,192.833 158.530 C 192.833 158.609,194.240 158.654,195.958 158.629 L 199.083 158.583 206.785 143.167 C 211.021 134.688,214.489 127.619,214.493 127.458 C 214.502 127.084,208.675 127.004,208.368 127.375 M215.895 127.294 C 215.625 127.470,213.164 132.442,213.286 132.564 C 213.343 132.621,215.439 132.667,217.944 132.667 C 220.450 132.667,222.500 132.694,222.500 132.726 C 222.500 132.759,219.650 138.523,216.167 145.535 C 212.683 152.547,209.833 158.371,209.833 158.476 C 209.833 158.612,210.710 158.667,212.917 158.667 L 216.002 158.667 222.478 145.708 L 228.954 132.750 233.547 132.667 C 236.073 132.621,238.175 132.546,238.218 132.500 C 238.433 132.270,240.667 127.636,240.667 127.419 C 240.667 127.146,216.311 127.024,215.895 127.294 M243.724 128.042 C 239.733 135.824,228.549 158.449,228.645 158.545 C 228.716 158.616,230.119 158.654,231.762 158.629 L 234.750 158.583 238.333 151.500 L 241.917 144.417 248.125 144.373 C 253.582 144.335,254.333 144.360,254.333 144.582 C 254.333 144.721,252.795 147.911,250.914 151.672 C 248.533 156.433,247.561 158.534,247.712 158.592 C 247.831 158.637,249.238 158.654,250.839 158.629 L 253.750 158.583 261.553 143.020 C 266.135 133.881,269.295 127.395,269.208 127.308 C 269.126 127.226,267.714 127.179,266.071 127.204 L 263.083 127.250 260.123 133.125 L 257.163 139.000 251.008 139.000 C 247.623 139.000,244.819 138.944,244.777 138.875 C 244.735 138.806,245.969 136.213,247.519 133.112 C 249.069 130.011,250.294 127.405,250.242 127.320 C 250.190 127.236,248.803 127.167,247.160 127.167 L 244.172 127.167 243.724 128.042 M293.034 127.280 C 292.822 127.365,277.333 158.167,277.333 158.503 C 277.333 158.615,278.407 158.658,280.458 158.629 L 283.583 158.583 286.250 153.333 L 288.917 148.083 291.250 146.473 C 292.814 145.394,293.645 144.914,293.772 145.019 C 293.875 145.104,294.280 146.504,294.672 148.129 C 295.063 149.754,295.804 152.771,296.317 154.833 L 297.250 158.583 300.905 158.628 C 302.915 158.653,304.613 158.616,304.678 158.545 C 304.743 158.474,304.430 157.104,303.983 155.500 C 303.535 153.896,302.833 151.383,302.423 149.917 C 302.012 148.450,301.566 146.837,301.432 146.333 C 301.297 145.829,300.920 144.458,300.594 143.287 C 300.267 142.115,300.000 141.054,300.000 140.928 C 300.000 140.682,300.405 140.381,306.250 136.292 C 317.233 128.607,318.829 127.461,318.742 127.320 C 318.689 127.235,317.141 127.167,315.259 127.167 L 311.871 127.167 310.853 127.875 C 309.895 128.542,305.808 131.476,300.917 135.008 C 293.930 140.053,292.748 140.860,292.699 140.618 C 292.672 140.480,294.111 137.443,295.899 133.869 C 297.686 130.295,299.103 127.325,299.047 127.269 C 298.924 127.146,293.342 127.156,293.034 127.280 M332.217 127.274 C 332.108 127.319,331.208 128.304,330.217 129.464 C 327.964 132.102,322.637 138.337,316.639 145.355 C 314.103 148.322,310.559 152.469,308.764 154.569 C 306.969 156.670,305.500 158.451,305.500 158.528 C 305.500 158.699,311.514 158.710,311.759 158.539 C 311.855 158.472,313.077 157.048,314.473 155.375 L 317.012 152.333 322.923 152.333 C 328.443 152.333,328.833 152.353,328.827 152.625 C 328.824 152.785,328.608 154.154,328.347 155.667 C 328.086 157.179,327.906 158.473,327.946 158.542 C 327.987 158.610,329.435 158.667,331.165 158.667 C 334.751 158.667,334.382 158.851,334.661 156.917 C 334.830 155.739,335.065 154.206,335.682 150.250 C 335.867 149.058,336.084 147.633,336.163 147.083 C 336.366 145.670,336.627 143.966,337.513 138.250 C 337.698 137.058,337.918 135.633,338.002 135.083 C 338.085 134.533,338.381 132.594,338.659 130.774 C 338.937 128.953,339.123 127.397,339.072 127.315 C 338.979 127.164,332.582 127.126,332.217 127.274 M344.229 127.294 C 343.914 127.499,341.639 132.188,341.734 132.436 C 341.807 132.625,342.641 132.667,346.328 132.667 C 349.228 132.667,350.833 132.726,350.833 132.834 C 350.833 132.926,347.983 138.700,344.500 145.667 C 341.017 152.633,338.167 158.408,338.167 158.500 C 338.167 158.605,339.300 158.667,341.250 158.667 L 344.333 158.667 350.833 145.667 L 357.334 132.667 361.916 132.667 L 366.498 132.667 367.824 130.019 C 368.553 128.563,369.103 127.326,369.047 127.269 C 368.900 127.122,344.455 127.147,344.229 127.294 M373.061 127.294 C 372.897 127.401,357.333 158.363,357.333 158.584 C 357.333 158.631,362.602 158.650,369.042 158.626 L 380.750 158.583 381.970 156.193 C 382.642 154.879,383.150 153.698,383.101 153.568 C 383.025 153.370,381.706 153.333,374.755 153.333 C 367.421 153.333,366.500 153.305,366.500 153.076 C 366.500 152.934,367.366 151.097,368.424 148.992 L 370.348 145.167 377.815 145.167 C 384.717 145.167,385.301 145.145,385.540 144.875 C 385.837 144.538,388.000 140.255,388.000 140.002 C 388.000 139.891,385.516 139.833,380.677 139.833 C 376.262 139.833,373.314 139.771,373.256 139.676 C 373.202 139.589,373.928 137.978,374.868 136.094 L 376.578 132.670 384.747 132.627 L 392.917 132.583 394.215 130.037 C 394.929 128.636,395.469 127.417,395.414 127.328 C 395.296 127.138,373.354 127.104,373.061 127.294 M107.676 132.948 C 109.545 134.053,107.396 138.888,104.417 140.282 L 103.417 140.750 98.375 140.799 C 94.977 140.831,93.333 140.791,93.333 140.675 C 93.333 140.580,94.214 138.739,95.290 136.584 L 97.247 132.667 102.223 132.667 C 106.596 132.667,107.256 132.701,107.676 132.948 M72.667 135.511 C 72.667 135.793,72.254 138.460,71.750 141.439 C 71.246 144.418,70.833 146.888,70.833 146.928 C 70.833 146.967,68.990 147.000,66.736 147.000 C 63.746 147.000,62.656 146.949,62.702 146.810 C 62.797 146.524,72.397 135.003,72.542 135.002 C 72.610 135.001,72.667 135.230,72.667 135.511 M331.707 135.204 C 331.744 135.316,331.566 136.648,331.312 138.162 C 331.057 139.677,330.768 141.404,330.669 142.000 C 330.571 142.596,330.343 143.940,330.162 144.987 C 329.981 146.035,329.833 146.916,329.833 146.946 C 329.833 146.976,327.996 147.000,325.750 147.000 C 323.504 147.000,321.667 146.941,321.667 146.870 C 321.667 146.798,323.662 144.345,326.101 141.418 C 328.541 138.492,330.724 135.850,330.955 135.549 C 331.400 134.965,331.597 134.874,331.707 135.204 M102.452 167.437 C 102.387 167.502,102.333 170.398,102.333 173.872 L 102.333 180.188 102.875 180.136 L 103.417 180.083 103.500 176.750 C 103.552 174.681,103.656 173.290,103.776 173.081 C 104.545 171.746,106.342 171.545,107.425 172.675 L 107.917 173.188 108.000 176.636 L 108.083 180.083 108.667 180.083 L 109.250 180.083 109.297 176.750 C 109.350 172.975,109.230 172.383,108.243 171.516 C 107.371 170.750,105.088 170.569,104.378 171.209 C 103.662 171.854,103.588 171.711,103.500 169.500 C 103.417 167.419,103.416 167.417,102.994 167.367 C 102.761 167.340,102.517 167.371,102.452 167.437 M172.952 167.437 C 172.887 167.502,172.833 168.481,172.833 169.611 C 172.833 170.742,172.792 171.667,172.741 171.667 C 172.690 171.667,172.373 171.479,172.036 171.250 C 170.483 170.195,168.120 170.925,167.270 172.723 C 166.736 173.852,166.638 176.738,167.090 178.020 C 167.793 180.012,170.450 181.006,172.004 179.857 C 172.606 179.411,172.771 179.409,172.885 179.845 C 172.957 180.122,173.084 180.179,173.529 180.136 L 174.083 180.083 174.083 173.750 L 174.083 167.417 173.577 167.367 C 173.299 167.340,173.018 167.371,172.952 167.437 M232.747 167.532 C 232.700 167.652,232.682 170.526,232.706 173.917 L 232.750 180.083 233.333 180.083 L 233.917 180.083 233.917 173.750 L 233.917 167.417 233.374 167.364 C 233.038 167.332,232.799 167.396,232.747 167.532 M83.278 168.611 C 83.217 168.672,83.167 169.189,83.167 169.760 C 83.167 170.868,83.066 171.000,82.225 171.000 C 81.498 171.000,81.743 171.892,82.500 172.000 L 83.083 172.083 83.167 175.508 C 83.273 179.859,83.530 180.305,85.833 180.138 C 86.995 180.053,87.056 179.263,85.914 179.092 C 84.519 178.882,84.486 178.790,84.538 175.205 L 84.583 172.083 85.625 172.034 C 86.656 171.985,86.667 171.979,86.667 171.492 C 86.667 171.014,86.644 171.000,85.847 171.000 C 84.559 171.000,84.500 170.945,84.500 169.750 C 84.500 168.948,84.438 168.679,84.236 168.601 C 83.888 168.468,83.416 168.472,83.278 168.611 M61.835 171.090 C 60.225 171.812,59.761 172.797,59.755 175.504 C 59.747 178.939,60.782 180.250,63.501 180.250 C 65.447 180.250,67.735 178.469,66.972 177.550 C 66.656 177.168,65.972 177.361,65.667 177.917 C 64.729 179.622,62.167 179.571,61.292 177.830 C 60.863 176.975,60.887 174.182,61.332 173.201 C 62.143 171.414,64.804 171.467,65.685 173.288 C 66.059 174.061,66.593 174.240,67.014 173.733 C 67.342 173.338,66.615 172.064,65.695 171.422 C 64.810 170.804,62.848 170.636,61.835 171.090 M72.743 171.147 C 71.572 171.678,70.757 172.974,71.430 173.232 C 71.971 173.440,72.306 173.318,72.735 172.755 C 73.971 171.134,76.757 171.872,76.634 173.788 L 76.583 174.583 74.917 174.679 C 71.883 174.853,70.833 175.645,70.833 177.758 C 70.833 179.952,73.241 181.033,75.642 179.915 C 76.710 179.418,76.608 179.424,76.718 179.845 C 76.790 180.122,76.918 180.179,77.362 180.136 L 77.917 180.083 77.962 176.574 C 78.014 172.460,77.873 171.940,76.507 171.217 C 75.571 170.722,73.752 170.688,72.743 171.147 M92.668 171.090 C 89.919 172.323,89.628 178.130,92.235 179.742 C 94.193 180.952,96.930 180.238,97.737 178.306 C 98.178 177.251,97.060 176.899,96.500 177.917 C 95.586 179.578,93.009 179.574,92.167 177.910 C 91.780 177.147,91.817 173.766,92.220 173.027 C 93.100 171.414,95.687 171.571,96.518 173.288 C 96.893 174.061,97.427 174.240,97.847 173.733 C 98.175 173.338,97.448 172.064,96.528 171.422 C 95.644 170.804,93.681 170.636,92.668 171.090 M131.238 171.149 C 128.116 172.567,128.411 179.021,131.650 180.138 C 134.964 181.281,137.459 178.283,136.671 174.106 C 136.152 171.353,133.712 170.025,131.238 171.149 M155.750 170.991 C 155.567 171.066,155.274 171.286,155.099 171.480 C 154.671 171.957,154.333 171.929,154.333 171.417 C 154.333 170.914,153.285 170.784,153.101 171.264 C 152.945 171.670,152.986 179.721,153.146 179.972 C 153.225 180.098,153.494 180.170,153.768 180.138 L 154.250 180.083 154.333 176.909 C 154.437 172.961,154.884 172.091,156.757 172.193 C 157.611 172.239,157.833 172.098,157.833 171.508 C 157.833 170.859,156.737 170.587,155.750 170.991 M181.583 171.064 C 181.308 171.184,180.980 171.406,180.855 171.558 C 180.542 171.935,180.366 171.903,180.303 171.458 C 180.260 171.157,180.127 171.073,179.622 171.031 L 178.995 170.980 179.039 175.531 L 179.083 180.083 179.565 180.138 C 180.284 180.220,180.328 180.022,180.331 176.647 C 180.334 172.766,180.677 172.167,182.893 172.167 C 183.556 172.167,183.642 172.121,183.744 171.715 C 183.948 170.902,182.769 170.548,181.583 171.064 M188.985 171.221 C 186.167 172.708,186.347 178.704,189.249 180.023 C 190.744 180.702,193.157 180.183,193.999 179.002 C 194.730 177.975,193.769 177.503,192.824 178.425 C 191.237 179.975,188.605 179.114,188.466 176.999 L 188.417 176.250 191.417 176.157 C 193.067 176.106,194.445 176.049,194.479 176.032 C 194.781 175.878,194.343 173.105,193.903 172.385 C 192.972 170.863,190.687 170.322,188.985 171.221 M200.231 171.152 C 199.115 171.659,198.286 172.985,198.930 173.232 C 199.471 173.440,199.806 173.318,200.235 172.755 C 201.471 171.134,204.257 171.872,204.134 173.788 L 204.083 174.583 202.417 174.679 C 199.411 174.852,198.333 175.650,198.334 177.700 C 198.336 180.201,201.166 181.119,204.020 179.544 C 204.078 179.512,204.166 179.645,204.216 179.838 C 204.290 180.122,204.415 180.179,204.862 180.136 L 205.417 180.083 205.457 176.500 C 205.497 173.054,205.484 172.892,205.124 172.263 C 204.356 170.920,201.946 170.373,200.231 171.152 M212.279 171.210 C 211.683 171.556,211.631 171.561,211.479 171.290 C 211.374 171.101,211.115 171.000,210.739 171.000 L 210.161 171.000 210.206 175.542 L 210.250 180.083 210.732 180.138 C 211.453 180.221,211.495 180.026,211.497 176.531 C 211.501 172.668,211.590 172.405,213.030 171.999 C 213.512 171.864,213.786 171.884,214.312 172.094 C 215.504 172.571,215.572 172.802,215.667 176.667 L 215.750 180.083 216.333 180.083 L 216.917 180.083 216.962 176.678 C 217.014 172.779,217.149 172.364,218.487 172.004 C 220.559 171.446,221.062 172.315,221.167 176.637 L 221.250 180.083 221.833 180.083 L 222.417 180.083 222.417 176.417 C 222.417 173.251,222.377 172.678,222.128 172.221 C 221.247 170.612,218.535 170.324,217.164 171.695 L 216.662 172.197 216.184 171.685 C 215.294 170.732,213.484 170.512,212.279 171.210 M239.932 171.287 C 238.530 172.081,238.166 173.333,239.337 173.333 C 239.684 173.333,239.882 173.196,240.124 172.784 C 241.188 170.981,244.335 171.952,244.137 174.022 L 244.083 174.583 242.333 174.680 C 239.269 174.850,237.835 176.098,238.238 178.245 C 238.580 180.065,241.379 180.959,243.261 179.849 C 243.994 179.417,244.106 179.415,244.215 179.833 C 244.278 180.076,244.442 180.167,244.818 180.167 L 245.333 180.167 245.333 176.492 C 245.333 172.392,245.292 172.200,244.222 171.384 C 243.287 170.670,241.109 170.621,239.932 171.287 M252.667 170.945 C 252.529 171.001,252.218 171.187,251.974 171.357 C 251.421 171.744,251.392 171.743,251.282 171.322 C 251.210 171.045,251.082 170.988,250.638 171.030 L 250.083 171.083 250.083 175.583 L 250.083 180.083 250.667 180.083 L 251.250 180.083 251.333 176.667 C 251.433 172.570,251.702 171.979,253.479 171.944 C 255.384 171.907,255.732 172.612,255.833 176.720 L 255.917 180.083 256.458 180.136 L 257.000 180.188 257.000 176.577 C 257.000 172.530,256.922 172.172,255.867 171.368 C 255.278 170.918,253.353 170.664,252.667 170.945 M263.271 171.202 C 261.111 172.477,260.642 177.559,262.526 179.272 C 263.638 180.284,265.616 180.509,266.732 179.751 C 267.461 179.257,267.600 179.419,267.429 180.559 C 267.254 181.728,266.517 182.311,264.896 182.561 C 263.599 182.762,263.583 182.770,263.583 183.257 C 263.583 184.119,265.951 184.004,267.372 183.073 C 268.681 182.216,268.743 181.917,268.804 176.125 L 268.859 171.000 268.247 171.000 C 267.776 171.000,267.615 171.076,267.548 171.333 C 267.440 171.748,267.430 171.748,266.816 171.294 C 266.053 170.730,264.153 170.681,263.271 171.202 M286.505 171.097 C 284.985 171.757,284.335 173.333,285.584 173.333 C 285.818 173.333,286.128 173.114,286.401 172.755 C 287.640 171.131,290.333 171.808,290.333 173.743 L 290.333 174.624 288.533 174.698 C 285.715 174.814,284.651 175.572,284.540 177.543 C 284.394 180.154,287.207 181.148,290.194 179.541 C 290.255 179.508,290.355 179.640,290.417 179.834 C 290.505 180.111,290.641 180.175,291.056 180.134 L 291.583 180.083 291.624 176.500 C 291.672 172.318,291.559 171.908,290.172 171.208 C 289.278 170.757,287.419 170.701,286.505 171.097 M297.756 171.204 C 296.081 172.176,295.356 175.753,296.328 178.250 C 296.993 179.960,299.703 180.789,301.234 179.750 C 302.018 179.218,302.000 179.211,302.000 180.016 C 302.000 181.595,301.139 182.417,299.297 182.598 C 298.057 182.721,297.917 182.815,298.071 183.426 C 298.293 184.312,301.202 183.798,302.325 182.675 C 303.241 181.759,303.333 181.116,303.333 175.658 L 303.333 171.000 302.734 171.000 C 302.276 171.000,302.115 171.078,302.048 171.333 C 301.940 171.748,301.930 171.748,301.316 171.294 C 300.552 170.729,298.657 170.681,297.756 171.204 M309.700 171.112 C 306.928 172.478,306.897 178.478,309.655 179.875 C 311.496 180.808,314.833 179.905,314.833 178.475 C 314.833 177.852,314.179 177.757,313.607 178.298 C 311.866 179.945,309.250 179.205,309.038 177.005 L 308.958 176.167 311.862 176.167 C 315.142 176.167,315.167 176.158,315.167 174.997 C 315.167 171.836,312.327 169.817,309.700 171.112 M118.500 171.087 C 118.500 171.134,119.175 173.128,120.000 175.518 C 121.633 180.249,121.644 180.303,121.189 181.364 C 120.823 182.218,120.602 182.424,119.732 182.725 C 118.648 183.101,118.792 183.752,119.956 183.743 C 121.641 183.729,121.740 183.554,124.335 175.971 C 126.079 170.874,126.056 171.000,125.237 171.000 L 124.697 171.000 123.920 173.458 C 123.493 174.810,122.983 176.424,122.788 177.044 C 122.299 178.595,122.248 178.524,120.956 174.530 L 119.814 171.000 119.157 171.000 C 118.796 171.000,118.500 171.039,118.500 171.087 M141.167 174.489 C 141.167 178.790,141.323 179.283,142.917 180.018 C 144.034 180.534,146.122 180.246,146.574 179.515 C 146.738 179.249,147.000 179.458,147.000 179.854 C 147.000 180.130,147.093 180.179,147.542 180.136 L 148.083 180.083 148.128 175.542 L 148.172 171.000 147.586 171.000 L 147.000 171.000 146.999 173.958 C 146.998 178.122,146.652 178.954,144.852 179.127 C 142.827 179.322,142.442 178.572,142.366 174.292 L 142.308 171.000 141.737 171.000 L 141.167 171.000 141.167 174.489 M273.333 174.592 C 273.333 178.418,273.382 178.691,274.195 179.450 C 275.207 180.396,276.778 180.586,278.090 179.922 C 278.872 179.526,279.155 179.560,279.164 180.052 C 279.166 180.127,279.410 180.164,279.708 180.136 L 280.250 180.083 280.294 175.542 L 280.339 171.000 279.771 171.000 C 279.006 171.000,279.000 171.029,279.000 174.683 L 279.000 177.838 278.448 178.441 C 277.369 179.618,275.465 179.358,274.824 177.947 C 274.549 177.343,274.507 176.834,274.504 174.125 L 274.500 171.000 273.917 171.000 L 273.333 171.000 273.333 174.592 M134.114 172.197 C 135.742 172.980,136.042 176.993,134.583 178.458 C 132.624 180.424,130.500 178.910,130.500 175.547 C 130.500 172.477,131.934 171.148,134.114 172.197 M171.808 172.388 C 172.794 173.301,173.183 176.615,172.459 177.945 C 171.543 179.630,169.126 179.538,168.422 177.792 C 167.048 174.385,169.586 170.334,171.808 172.388 M191.948 172.197 C 192.929 172.669,193.620 174.624,192.903 174.899 C 192.504 175.052,188.782 175.015,188.530 174.855 C 188.271 174.691,188.404 173.695,188.783 172.945 C 189.265 171.994,190.780 171.636,191.948 172.197 M266.500 172.312 C 267.343 172.909,267.522 173.553,267.467 175.789 L 267.417 177.828 266.808 178.437 C 264.904 180.340,262.778 178.781,262.790 175.492 C 262.800 172.503,264.596 170.964,266.500 172.312 M300.966 172.271 C 302.552 173.293,302.450 177.989,300.823 178.862 C 298.846 179.922,297.305 178.494,297.296 175.592 C 297.285 172.559,299.002 171.006,300.966 172.271 M312.332 172.102 C 313.146 172.428,313.669 173.117,313.791 174.025 C 313.914 174.938,313.778 174.994,311.472 174.997 C 309.167 175.000,309.000 174.954,309.000 174.310 C 309.000 172.527,310.654 171.431,312.332 172.102 M76.634 176.743 C 76.696 177.934,76.505 178.342,75.669 178.812 C 73.736 179.899,71.361 178.553,72.233 176.865 C 72.679 176.003,73.633 175.678,75.583 175.726 L 76.583 175.750 76.634 176.743 M204.133 176.788 C 204.193 178.040,204.024 178.396,203.168 178.833 C 201.181 179.846,198.857 178.554,199.735 176.924 C 200.232 175.999,201.130 175.678,203.083 175.726 L 204.083 175.750 204.133 176.788 M244.132 176.760 C 244.232 178.832,241.435 180.127,239.987 178.679 C 238.484 177.176,240.037 175.653,243.000 175.724 L 244.083 175.750 244.132 176.760 M290.333 176.761 C 290.333 178.465,289.603 179.167,287.829 179.167 C 286.438 179.167,285.847 178.694,285.839 177.573 C 285.829 176.306,286.887 175.727,289.292 175.685 L 290.333 175.667 290.333 176.761 " stroke="none" fill="#2d7946" fill-rule="evenodd"></path><path id="path2" d="" stroke="none" fill="#c410090" fill-rule="evenodd"></path><path id="path3" d="" stroke="none" fill="#c410090" fill-rule="evenodd"></path><path id="path4" d="" stroke="none" fill="#c410090" fill-rule="evenodd"></path><path id="path5" d="" stroke="none" fill="#c410090" fill-rule="evenodd"></path><path id="path6" d="" stroke="none" fill="#c410090" fill-rule="evenodd"></path><path id="path7" d="" stroke="none" fill="#c410090" fill-rule="evenodd"></path><path id="path8" d="" stroke="none" fill="#c410090" fill-rule="evenodd"></path><path id="path0" d="M0.000 94.250 L 0.000 188.500 200.000 188.500 L 400.000 188.500 400.000 94.250 L 400.000 0.000 200.000 0.000 L 0.000 0.000 0.000 94.250 M190.583 4.582 C 194.466 5.016,195.920 5.329,198.833 6.354 C 202.025 7.477,206.035 9.779,208.457 11.879 C 209.468 12.755,209.525 12.780,210.472 12.767 C 212.310 12.742,213.416 13.936,213.307 15.829 C 213.256 16.713,213.301 16.867,213.834 17.604 C 216.963 21.938,219.804 29.484,219.832 33.542 C 219.833 33.610,219.929 33.667,220.045 33.667 C 220.428 33.667,221.504 34.686,221.754 35.286 C 222.295 36.580,221.799 38.047,220.577 38.763 C 219.808 39.213,219.738 39.389,219.411 41.667 C 218.773 46.119,216.479 51.388,213.402 55.468 C 212.720 56.371,212.359 56.994,212.423 57.158 C 213.047 58.777,212.866 59.877,211.815 60.849 L 211.167 61.449 211.167 63.563 C 211.167 65.502,211.202 65.748,211.594 66.521 C 216.423 76.051,216.418 88.377,211.582 98.039 C 210.111 100.977,209.999 101.020,208.960 99.042 C 203.618 88.870,203.330 77.092,208.183 67.261 L 209.000 65.605 209.000 63.465 C 209.000 60.589,208.838 60.477,206.798 61.947 C 202.323 65.169,198.038 66.894,192.417 67.735 L 189.917 68.110 189.871 71.074 L 189.825 74.039 190.657 75.827 C 192.449 79.684,193.448 83.002,194.274 87.833 C 194.613 89.818,194.669 96.308,194.364 98.167 C 193.368 104.223,191.764 108.970,189.395 112.869 C 188.656 114.085,188.598 114.064,187.628 112.237 C 181.414 100.525,181.177 86.352,187.012 75.522 L 187.674 74.294 187.629 71.189 L 187.583 68.083 186.583 68.044 C 181.141 67.833,174.921 65.754,170.248 62.586 C 169.367 61.989,168.576 61.500,168.490 61.500 C 168.117 61.500,168.313 65.278,168.733 66.203 C 173.916 77.612,173.759 89.226,168.289 99.083 C 167.170 101.100,167.212 101.130,165.241 96.917 C 160.879 87.594,160.983 76.168,165.511 67.144 L 166.333 65.506 166.333 63.614 L 166.333 61.722 165.667 61.187 C 164.709 60.417,164.441 59.810,164.546 58.646 C 164.619 57.841,164.581 57.641,164.310 57.396 C 161.392 54.755,157.689 47.239,156.848 42.250 C 156.273 38.836,156.343 39.053,155.581 38.292 C 154.359 37.070,154.456 35.158,155.791 34.171 C 156.231 33.846,156.306 33.654,156.495 32.362 C 157.336 26.592,159.358 21.576,162.574 17.276 C 163.427 16.136,163.463 16.046,163.389 15.250 C 163.224 13.472,164.581 12.105,166.417 12.198 C 167.210 12.239,167.310 12.193,168.500 11.241 C 172.631 7.938,178.145 5.559,183.333 4.842 C 187.271 4.298,187.853 4.277,190.583 4.582 M186.417 5.930 C 179.615 6.533,173.344 8.946,169.008 12.628 L 168.433 13.116 168.712 13.981 C 168.887 14.521,168.958 15.110,168.901 15.548 L 168.810 16.250 171.379 18.806 L 173.949 21.361 174.820 21.103 C 175.646 20.858,175.749 20.863,176.775 21.200 L 177.859 21.555 182.889 16.528 C 185.655 13.762,187.994 11.500,188.085 11.500 C 188.177 11.500,190.576 13.825,193.417 16.667 C 198.801 22.053,198.759 22.019,199.474 21.531 C 200.470 20.852,202.254 20.761,202.908 21.356 C 203.274 21.689,203.691 21.388,205.842 19.241 L 208.105 16.982 207.934 16.145 C 207.794 15.465,207.815 15.161,208.040 14.533 C 208.375 13.602,208.374 13.599,206.500 12.171 C 200.833 7.852,192.820 5.361,186.417 5.930 M183.333 18.083 L 178.752 22.667 188.000 22.667 L 197.248 22.667 192.667 18.083 C 190.147 15.563,188.047 13.500,188.000 13.500 C 187.953 13.500,185.853 15.563,183.333 18.083 M163.869 17.958 C 160.877 21.756,158.585 27.394,157.918 32.601 L 157.809 33.453 158.613 33.851 C 159.102 34.094,159.574 34.495,159.820 34.875 L 160.223 35.500 162.071 35.500 L 163.919 35.500 168.403 31.013 L 172.887 26.527 172.592 25.588 C 172.372 24.889,172.324 24.383,172.405 23.616 L 172.513 22.583 170.048 20.134 L 167.583 17.684 166.383 17.717 C 165.606 17.738,165.110 17.677,164.975 17.542 C 164.637 17.204,164.391 17.296,163.869 17.958 M206.744 20.370 L 204.284 22.762 204.495 23.400 C 204.809 24.354,204.581 25.515,203.892 26.467 C 203.617 26.847,203.646 26.881,207.928 31.175 L 212.241 35.500 214.354 35.500 L 216.467 35.500 216.813 34.913 C 217.004 34.590,217.424 34.170,217.746 33.980 C 218.069 33.790,218.333 33.501,218.333 33.339 C 218.333 29.133,213.664 17.924,212.000 18.136 C 211.095 18.252,209.736 18.239,209.477 18.112 C 209.266 18.009,208.635 18.531,206.744 20.370 M178.916 25.112 L 178.641 26.057 182.305 29.721 L 185.969 33.385 186.775 33.006 C 188.081 32.392,189.465 32.518,190.693 33.363 L 191.136 33.667 194.840 30.042 L 198.543 26.417 198.245 25.500 C 198.082 24.996,197.924 24.490,197.896 24.375 C 197.855 24.211,195.840 24.167,188.517 24.167 L 179.190 24.167 178.916 25.112 M170.000 31.417 L 165.919 35.500 170.293 35.500 L 174.667 35.500 174.667 31.518 C 174.667 27.523,174.641 27.333,174.110 27.333 C 174.094 27.333,172.244 29.171,170.000 31.417 M195.790 31.126 C 193.706 33.212,192.000 35.050,192.000 35.210 C 192.000 35.478,192.309 35.500,196.000 35.500 L 200.000 35.500 200.000 31.417 C 200.000 28.247,199.953 27.333,199.790 27.333 C 199.675 27.333,197.875 29.040,195.790 31.126 M176.278 27.611 C 176.217 27.672,176.167 29.473,176.167 31.614 L 176.167 35.506 180.445 35.461 C 183.836 35.426,184.738 35.371,184.797 35.194 C 184.942 34.757,177.501 27.500,176.908 27.500 C 176.622 27.500,176.339 27.550,176.278 27.611 M201.500 31.572 L 201.500 35.500 205.750 35.500 C 208.088 35.500,210.000 35.468,210.000 35.428 C 210.000 35.147,202.248 27.741,201.907 27.697 L 201.500 27.645 201.500 31.572 M160.069 37.413 C 159.958 37.856,158.800 38.998,158.458 39.003 C 156.877 39.022,159.222 47.273,162.185 52.113 C 163.737 54.649,165.330 56.542,165.810 56.422 C 166.052 56.361,166.707 56.271,167.264 56.221 L 168.279 56.131 170.589 53.932 L 172.900 51.732 172.596 50.767 C 172.202 49.516,172.330 48.493,173.000 47.537 C 173.275 47.145,173.500 46.769,173.500 46.702 C 173.500 46.636,171.343 44.425,168.707 41.791 L 163.915 37.000 162.044 37.000 C 160.192 37.000,160.172 37.004,160.069 37.413 M166.167 37.126 C 166.167 37.290,174.379 45.500,174.543 45.500 C 174.611 45.500,174.667 43.587,174.667 41.250 L 174.667 37.000 170.417 37.000 C 168.079 37.000,166.167 37.057,166.167 37.126 M176.167 41.589 C 176.167 45.814,176.190 46.184,176.458 46.266 C 176.619 46.315,176.998 46.476,177.301 46.625 L 177.853 46.896 181.793 42.956 C 185.501 39.248,185.717 38.999,185.464 38.716 C 185.316 38.552,185.068 38.098,184.913 37.708 L 184.630 37.000 180.399 37.000 L 176.167 37.000 176.167 41.589 M191.841 37.771 C 191.654 38.195,191.500 38.627,191.500 38.731 C 191.500 39.196,199.282 46.706,199.645 46.590 C 199.996 46.479,200.000 46.429,200.000 41.739 L 200.000 37.000 196.091 37.000 L 192.182 37.000 191.841 37.771 M201.500 41.250 C 201.500 43.587,201.557 45.500,201.626 45.500 C 201.790 45.500,210.000 37.287,210.000 37.124 C 210.000 37.056,208.088 37.000,205.750 37.000 L 201.500 37.000 201.500 41.250 M207.624 41.626 C 202.722 46.531,202.766 46.475,203.430 46.910 C 204.436 47.569,204.917 49.535,204.392 50.846 L 204.117 51.533 206.434 53.820 L 208.750 56.108 209.995 56.012 L 211.240 55.917 212.203 54.667 C 215.446 50.461,217.510 45.382,218.249 39.792 C 218.315 39.293,218.290 39.000,218.183 39.000 C 217.876 39.000,216.880 38.014,216.667 37.501 L 216.460 37.000 214.354 37.000 L 212.248 37.000 207.624 41.626 M182.820 43.957 C 180.627 46.111,178.833 47.977,178.833 48.103 C 178.833 48.296,180.370 48.333,188.333 48.333 C 195.854 48.333,197.833 48.290,197.833 48.124 C 197.833 48.008,196.052 46.142,193.875 43.976 L 189.917 40.038 188.362 40.039 L 186.807 40.040 182.820 43.957 M179.167 49.832 C 178.915 49.993,187.674 59.000,188.083 59.000 C 188.347 59.000,197.361 49.916,197.229 49.784 C 197.045 49.600,179.456 49.647,179.167 49.832 M193.167 56.083 C 190.464 58.788,188.176 61.000,188.083 61.000 C 187.990 61.000,185.815 58.900,183.250 56.333 C 178.497 51.578,178.370 51.471,177.990 51.929 C 177.354 52.695,175.331 53.112,174.473 52.652 C 174.173 52.491,173.879 52.726,171.799 54.792 L 169.463 57.111 169.752 57.670 C 169.973 58.099,170.021 58.492,169.959 59.368 L 169.877 60.507 170.480 60.982 C 180.042 68.514,195.927 68.380,206.097 60.681 L 207.225 59.827 207.265 58.606 L 207.306 57.385 204.988 55.071 L 202.670 52.758 201.627 52.804 C 200.353 52.861,199.572 52.565,198.863 51.758 C 198.165 50.963,198.660 50.588,193.167 56.083 M26.117 127.276 C 26.185 127.455,23.961 132.077,19.852 140.295 C 16.348 147.303,13.509 153.064,13.542 153.097 C 13.574 153.130,16.970 153.164,21.087 153.172 L 28.573 153.187 34.970 140.385 C 38.489 133.344,41.484 127.452,41.626 127.292 C 41.994 126.877,64.281 126.835,64.439 127.249 C 64.538 127.507,62.308 132.168,61.882 132.594 C 61.681 132.795,60.368 132.833,53.572 132.833 L 45.502 132.833 43.918 135.998 C 43.046 137.739,42.333 139.277,42.333 139.415 C 42.333 139.636,43.238 139.667,49.667 139.667 C 56.542 139.667,57.000 139.685,56.993 139.958 C 56.989 140.119,56.407 141.375,55.701 142.750 L 54.417 145.250 46.875 145.293 L 39.333 145.337 37.417 149.167 C 36.362 151.274,35.500 153.035,35.500 153.082 C 35.500 153.129,38.931 153.163,43.125 153.159 L 50.750 153.151 53.083 150.390 C 54.367 148.871,55.792 147.199,56.250 146.676 C 56.708 146.152,58.321 144.269,59.833 142.491 C 65.006 136.411,71.699 128.584,72.403 127.792 L 73.107 127.000 76.642 127.000 C 79.515 127.000,80.194 127.044,80.267 127.233 C 80.362 127.481,80.076 129.486,78.581 139.083 C 78.338 140.642,78.075 142.367,77.996 142.917 C 77.917 143.467,77.694 144.929,77.500 146.167 C 77.306 147.404,76.959 149.654,76.729 151.167 C 76.499 152.679,76.246 154.329,76.167 154.833 C 76.088 155.337,75.942 156.313,75.842 157.000 C 75.545 159.035,75.950 158.833,72.165 158.833 C 70.311 158.833,68.811 158.765,68.758 158.679 C 68.679 158.552,69.239 154.760,69.601 152.958 L 69.693 152.500 63.972 152.503 C 60.825 152.504,58.170 152.560,58.072 152.628 C 57.973 152.695,56.752 154.118,55.358 155.791 L 52.822 158.832 28.504 158.832 C 12.701 158.831,4.149 158.774,4.083 158.667 C 3.994 158.521,19.284 127.733,19.706 127.208 C 19.993 126.852,25.978 126.916,26.117 127.276 M113.216 127.371 C 118.902 129.277,115.327 139.103,107.618 142.755 C 105.752 143.639,105.836 143.538,106.575 143.995 C 108.205 145.002,108.183 146.590,106.489 150.266 C 105.781 151.805,104.992 153.502,104.339 154.895 C 103.801 156.040,103.778 156.291,104.091 157.541 C 104.168 157.849,104.115 158.138,103.930 158.420 L 103.655 158.840 100.119 158.795 L 96.583 158.750 96.627 157.917 C 96.690 156.701,96.856 156.276,98.781 152.387 C 101.740 146.411,101.640 146.274,94.417 146.367 L 90.583 146.417 87.500 152.583 L 84.417 158.750 81.125 158.795 C 78.268 158.834,77.833 158.807,77.833 158.587 C 77.833 158.259,93.312 127.292,93.561 127.121 C 93.963 126.845,112.346 127.079,113.216 127.371 M127.856 127.583 C 127.925 127.858,128.099 129.583,128.242 131.417 C 128.385 133.250,128.577 135.612,128.669 136.667 C 128.914 139.497,129.145 142.291,129.347 144.897 C 129.446 146.170,129.584 147.364,129.653 147.550 C 129.750 147.813,130.928 145.592,134.904 137.653 C 137.723 132.023,140.109 127.321,140.205 127.205 C 140.497 126.852,146.562 126.993,146.631 127.354 C 146.678 127.597,131.549 158.119,131.131 158.625 C 130.913 158.889,124.577 158.927,124.415 158.664 C 124.315 158.502,124.213 157.402,123.844 152.500 C 123.751 151.262,123.596 149.350,123.501 148.250 C 123.264 145.531,123.050 143.039,122.810 140.208 C 122.699 138.902,122.565 137.833,122.513 137.833 C 122.460 137.833,120.054 142.540,117.167 148.292 L 111.917 158.750 108.625 158.795 C 106.024 158.831,105.333 158.795,105.333 158.625 C 105.333 158.309,120.820 127.279,121.052 127.129 C 121.161 127.059,122.708 127.020,124.490 127.042 L 127.729 127.083 127.856 127.583 M172.906 127.667 C 172.900 127.987,172.474 129.675,171.960 131.417 C 171.446 133.158,170.826 135.258,170.582 136.083 C 170.338 136.908,169.855 138.558,169.508 139.750 C 167.381 147.066,166.786 149.097,166.713 149.287 C 166.546 149.722,166.979 149.481,167.303 148.958 C 167.600 148.479,170.449 144.427,173.543 140.083 C 174.131 139.258,175.505 137.316,176.598 135.768 C 177.690 134.219,179.521 131.632,180.668 130.018 L 182.752 127.083 185.852 127.038 C 189.756 126.981,189.522 126.697,188.505 130.255 C 186.055 138.828,183.275 148.658,183.157 149.167 L 183.021 149.750 183.365 149.333 C 183.777 148.833,184.752 147.450,189.773 140.250 C 191.883 137.225,194.827 133.005,196.317 130.872 L 199.026 126.993 202.386 127.038 C 205.219 127.076,205.752 127.122,205.787 127.333 C 205.809 127.471,204.886 128.783,203.736 130.250 C 201.887 132.608,200.091 134.919,197.000 138.917 C 188.773 149.560,182.197 158.011,181.861 158.375 L 181.438 158.833 178.562 158.833 C 176.980 158.833,175.645 158.767,175.595 158.686 C 175.545 158.605,176.968 153.411,178.756 147.144 C 180.545 140.878,181.988 135.650,181.962 135.527 C 181.937 135.404,181.467 135.951,180.917 136.742 C 180.367 137.533,179.467 138.805,178.917 139.569 C 178.367 140.333,176.944 142.336,175.755 144.021 C 174.567 145.705,172.688 148.358,171.581 149.917 C 170.474 151.475,168.598 154.119,167.413 155.792 L 165.258 158.833 162.296 158.833 L 159.333 158.833 159.333 158.404 C 159.333 158.056,161.051 149.842,161.666 147.250 C 161.753 146.883,162.242 144.633,162.754 142.250 C 166.107 126.622,165.951 127.302,166.220 127.128 C 166.328 127.058,167.879 127.020,169.667 127.042 L 172.917 127.083 172.906 127.667 M214.765 127.230 C 214.814 127.357,211.324 134.519,207.010 143.147 L 199.166 158.833 195.916 158.833 C 192.864 158.833,192.667 158.815,192.667 158.525 C 192.667 158.091,208.091 127.223,208.362 127.115 C 208.912 126.895,214.677 126.999,214.765 127.230 M240.932 127.231 C 241.027 127.478,238.586 132.501,238.271 132.706 C 238.168 132.773,236.058 132.834,233.583 132.841 L 229.083 132.854 222.613 145.843 L 216.142 158.833 212.914 158.833 C 211.059 158.833,209.645 158.766,209.589 158.675 C 209.535 158.588,212.343 152.814,215.829 145.842 C 219.315 138.871,222.167 133.092,222.167 133.000 C 222.167 132.893,220.562 132.833,217.661 132.833 C 213.974 132.833,213.140 132.791,213.068 132.602 C 212.976 132.363,215.171 127.807,215.627 127.292 C 215.980 126.893,240.780 126.833,240.932 127.231 M250.427 127.217 C 250.473 127.336,249.270 129.950,247.755 133.026 C 246.240 136.102,245.000 138.668,245.000 138.728 C 245.000 138.788,247.719 138.818,251.042 138.794 L 257.083 138.750 260.002 132.917 L 262.921 127.083 266.104 127.038 C 268.522 127.004,269.328 127.044,269.459 127.205 C 269.586 127.360,267.539 131.589,261.774 143.083 L 253.917 158.750 250.625 158.795 C 247.766 158.834,247.333 158.807,247.333 158.586 C 247.333 158.446,248.872 155.255,250.753 151.495 C 253.083 146.836,254.104 144.632,253.960 144.577 C 253.843 144.532,251.124 144.515,247.916 144.539 L 242.083 144.583 238.500 151.667 L 234.917 158.750 231.625 158.795 C 228.864 158.833,228.333 158.802,228.333 158.603 C 228.333 158.277,243.820 127.281,244.059 127.128 C 244.423 126.894,250.335 126.977,250.427 127.217 M299.266 127.230 C 299.314 127.357,297.920 130.328,296.167 133.832 C 294.415 137.336,293.017 140.240,293.062 140.284 C 293.106 140.329,293.954 139.780,294.946 139.065 C 295.938 138.351,298.587 136.445,300.833 134.830 C 303.079 133.215,306.448 130.791,308.319 129.444 L 311.722 126.994 315.389 127.039 C 317.962 127.070,319.075 127.140,319.119 127.274 C 319.154 127.379,317.211 128.847,314.800 130.536 C 312.389 132.224,308.242 135.128,305.583 136.988 C 302.925 138.848,300.612 140.502,300.444 140.662 C 300.148 140.945,300.188 141.134,301.665 146.435 C 302.504 149.450,303.605 153.406,304.111 155.226 C 304.667 157.223,304.971 158.596,304.879 158.687 C 304.793 158.773,303.057 158.820,300.905 158.795 L 297.083 158.750 296.224 155.333 C 295.752 153.454,295.015 150.454,294.588 148.667 C 294.161 146.879,293.750 145.354,293.675 145.278 C 293.565 145.166,291.672 146.370,289.377 148.012 C 289.170 148.160,287.867 150.552,286.380 153.512 L 283.750 158.750 280.458 158.795 C 277.584 158.835,277.167 158.808,277.167 158.583 C 277.167 158.249,292.648 127.289,292.895 127.128 C 293.271 126.883,299.169 126.978,299.266 127.230 M339.266 127.233 C 339.349 127.448,339.249 128.325,338.845 130.917 C 338.759 131.467,338.539 132.892,338.356 134.083 C 338.173 135.275,337.824 137.525,337.581 139.083 C 337.338 140.642,337.077 142.367,336.999 142.917 C 336.847 144.002,336.335 147.328,335.167 154.833 C 335.088 155.337,334.942 156.313,334.842 157.000 C 334.545 159.035,334.950 158.833,331.165 158.833 C 329.307 158.833,327.811 158.765,327.757 158.679 C 327.705 158.594,327.888 157.195,328.164 155.570 C 328.441 153.946,328.667 152.591,328.667 152.559 C 328.667 152.526,326.080 152.500,322.918 152.500 L 317.169 152.500 316.764 152.958 C 316.541 153.210,315.356 154.617,314.130 156.083 L 311.901 158.750 308.671 158.795 C 304.869 158.849,304.881 158.855,306.030 157.498 C 306.518 156.922,307.179 156.132,307.500 155.743 C 307.821 155.354,309.996 152.805,312.333 150.078 C 318.983 142.321,323.434 137.113,327.500 132.331 C 329.563 129.905,331.450 127.714,331.696 127.460 L 332.141 127.000 335.659 127.000 C 338.517 127.000,339.194 127.044,339.266 127.233 M369.266 127.231 C 369.336 127.414,367.029 132.334,366.718 132.667 C 366.675 132.712,364.573 132.787,362.047 132.833 L 357.454 132.917 350.978 145.875 L 344.502 158.833 341.251 158.833 C 338.347 158.833,338.000 158.804,338.000 158.560 C 338.000 158.409,340.813 152.623,344.250 145.702 C 347.688 138.782,350.500 133.055,350.500 132.976 C 350.500 132.898,348.479 132.833,346.010 132.833 C 343.043 132.833,341.483 132.774,341.411 132.658 C 341.305 132.486,343.260 128.363,343.877 127.458 L 344.189 127.000 356.683 127.000 C 367.179 127.000,369.191 127.037,369.266 127.231 M395.616 127.274 C 395.733 127.579,393.461 132.281,393.030 132.625 C 392.830 132.785,390.910 132.833,384.724 132.833 L 376.679 132.833 375.089 136.042 C 374.215 137.806,373.500 139.344,373.500 139.458 C 373.500 139.622,375.078 139.667,380.833 139.667 C 387.709 139.667,388.166 139.685,388.159 139.958 C 388.155 140.119,387.574 141.375,386.868 142.750 L 385.583 145.250 378.042 145.293 L 370.500 145.337 368.583 149.167 C 367.529 151.274,366.667 153.035,366.667 153.082 C 366.667 153.129,370.364 153.167,374.883 153.167 C 380.800 153.167,383.153 153.220,383.290 153.356 C 383.431 153.498,383.144 154.214,382.155 156.190 L 380.831 158.833 368.999 158.833 C 358.585 158.833,357.167 158.803,357.167 158.583 C 357.167 158.272,372.437 127.693,372.793 127.292 C 373.180 126.855,395.448 126.838,395.616 127.274 M95.417 136.665 C 94.363 138.773,93.500 140.541,93.500 140.595 C 93.500 140.873,103.261 140.558,104.083 140.254 C 106.071 139.519,108.620 135.683,108.247 133.987 C 108.008 132.899,107.672 132.835,102.209 132.834 L 97.335 132.833 95.417 136.665 M71.500 136.424 C 70.996 137.039,69.383 138.977,67.917 140.731 C 63.621 145.869,63.000 146.627,63.000 146.733 C 63.000 146.788,64.725 146.833,66.833 146.833 C 68.942 146.833,70.667 146.805,70.667 146.770 C 70.667 146.736,71.081 144.242,71.587 141.229 C 72.666 134.799,72.670 134.997,71.500 136.424 M330.500 136.424 C 329.996 137.039,327.877 139.588,325.792 142.088 C 323.706 144.589,322.000 146.679,322.000 146.734 C 322.000 146.789,323.725 146.833,325.833 146.833 C 327.942 146.833,329.667 146.805,329.667 146.770 C 329.667 146.736,330.081 144.242,330.587 141.229 C 331.666 134.799,331.670 134.997,330.500 136.424 M103.403 167.268 C 103.623 167.352,103.667 167.697,103.667 169.351 C 103.667 170.441,103.704 171.333,103.751 171.333 C 103.797 171.333,104.114 171.183,104.456 171.000 C 105.762 170.300,107.660 170.629,108.619 171.721 C 109.388 172.597,109.498 173.227,109.499 176.771 C 109.500 180.299,109.471 180.399,108.469 180.303 L 107.917 180.250 107.833 176.721 C 107.752 173.264,107.742 173.184,107.343 172.760 C 106.456 171.817,104.848 171.880,104.099 172.887 C 103.779 173.318,103.743 173.638,103.667 176.803 L 103.583 180.250 102.917 180.250 L 102.250 180.250 102.206 173.917 C 102.155 166.556,102.116 166.774,103.403 167.268 M174.133 167.367 C 174.282 167.515,174.333 169.163,174.333 173.750 C 174.333 178.337,174.282 179.985,174.133 180.133 C 173.798 180.468,172.816 180.385,172.718 180.013 C 172.638 179.705,172.606 179.709,171.876 180.097 C 168.963 181.645,166.543 179.302,166.691 175.078 C 166.817 171.494,169.594 169.424,172.045 171.089 L 172.667 171.512 172.667 169.539 C 172.667 167.417,172.754 167.167,173.500 167.167 C 173.738 167.167,174.023 167.257,174.133 167.367 M233.967 167.367 C 234.115 167.515,234.167 169.166,234.167 173.763 C 234.167 180.589,234.196 180.405,233.136 180.303 L 232.583 180.250 232.540 173.936 C 232.508 169.414,232.550 167.558,232.685 167.395 C 232.918 167.113,233.696 167.096,233.967 167.367 M84.379 168.542 C 84.569 168.686,84.669 169.058,84.702 169.750 L 84.750 170.750 85.750 170.833 L 86.750 170.917 86.750 171.500 L 86.750 172.083 85.708 172.133 L 84.667 172.183 84.667 175.232 C 84.667 178.692,84.665 178.688,86.000 178.948 C 86.717 179.087,86.750 179.120,86.750 179.672 L 86.750 180.250 85.750 180.295 C 83.373 180.403,83.001 179.738,83.000 175.385 L 83.000 172.187 82.375 172.135 C 81.443 172.058,81.408 170.966,82.333 170.833 L 82.917 170.750 82.968 169.756 C 83.038 168.397,83.575 167.934,84.379 168.542 M65.047 170.891 C 66.772 171.614,67.925 173.803,66.739 174.101 C 66.162 174.246,65.963 174.128,65.588 173.419 C 64.639 171.621,62.359 171.580,61.459 173.345 C 61.082 174.084,61.049 176.895,61.407 177.752 C 62.103 179.418,64.877 179.414,65.575 177.745 C 65.924 176.910,67.051 176.917,67.133 177.755 C 67.327 179.738,63.925 181.178,61.684 180.061 C 58.594 178.521,58.696 172.291,61.833 170.932 C 62.563 170.616,64.337 170.594,65.047 170.891 M76.819 171.220 C 78.062 172.043,78.181 172.542,78.128 176.698 L 78.083 180.250 77.466 180.301 C 77.003 180.340,76.799 180.273,76.651 180.036 C 76.457 179.726,76.439 179.727,75.768 180.055 C 73.379 181.223,70.667 180.034,70.667 177.818 C 70.667 175.537,72.102 174.500,75.258 174.500 L 76.500 174.500 76.500 173.742 C 76.500 171.982,73.731 171.302,72.861 172.849 C 72.420 173.633,71.000 173.670,71.000 172.898 C 71.000 171.050,74.874 169.933,76.819 171.220 M95.964 170.926 C 97.476 171.557,98.679 173.547,97.825 174.005 C 97.246 174.315,96.795 174.129,96.427 173.431 C 95.474 171.621,93.195 171.574,92.292 173.345 C 91.940 174.035,91.904 176.745,92.235 177.667 C 92.856 179.400,95.715 179.454,96.429 177.746 C 96.637 177.247,96.749 177.167,97.232 177.167 C 98.047 177.167,98.246 177.488,97.917 178.275 C 96.472 181.733,91.187 180.999,90.482 177.243 C 89.623 172.670,92.421 169.446,95.964 170.926 M135.187 171.253 C 137.762 173.063,137.560 178.720,134.873 180.021 C 131.098 181.848,127.857 178.094,129.168 173.413 C 129.847 170.987,133.131 169.808,135.187 171.253 M157.678 170.839 C 157.876 170.945,157.999 171.186,157.997 171.464 C 157.993 172.214,157.770 172.401,156.935 172.358 C 154.941 172.255,154.605 172.895,154.500 176.992 L 154.417 180.250 153.841 180.305 C 152.863 180.398,152.833 180.260,152.836 175.676 C 152.838 170.723,152.824 170.800,153.723 170.866 C 154.283 170.908,154.420 170.987,154.496 171.314 L 154.589 171.710 155.086 171.297 C 155.859 170.653,156.965 170.458,157.678 170.839 M183.630 170.926 C 184.362 171.439,183.890 172.442,182.954 172.361 C 180.867 172.181,180.500 172.832,180.500 176.702 C 180.500 180.173,180.438 180.395,179.493 180.305 L 178.917 180.250 178.917 175.583 L 178.917 170.917 179.605 170.866 C 180.230 170.821,180.303 170.857,180.405 171.263 L 180.517 171.709 180.884 171.364 C 181.629 170.664,182.954 170.453,183.630 170.926 M192.461 170.925 C 193.841 171.501,194.492 172.592,194.627 174.553 C 194.751 176.371,194.822 176.333,191.280 176.333 L 188.457 176.333 188.567 177.021 C 188.910 179.166,191.225 179.754,192.939 178.133 C 193.849 177.272,194.870 178.012,194.156 179.015 C 192.116 181.880,187.604 180.582,186.992 176.954 C 186.236 172.471,188.965 169.464,192.461 170.925 M203.930 170.983 C 205.481 171.687,205.698 172.433,205.634 176.833 L 205.583 180.250 204.966 180.301 C 204.506 180.339,204.298 180.273,204.153 180.041 C 203.964 179.738,203.940 179.738,203.271 180.073 C 200.906 181.255,198.166 179.972,198.167 177.684 C 198.169 175.562,199.666 174.514,202.708 174.504 L 204.000 174.500 204.000 173.742 C 204.000 171.982,201.231 171.302,200.361 172.849 C 199.901 173.667,198.500 173.663,198.500 172.843 C 198.500 171.260,201.944 170.081,203.930 170.983 M215.981 171.298 L 216.652 171.837 217.423 171.294 C 218.513 170.525,220.433 170.488,221.388 171.217 C 222.515 172.076,222.577 172.330,222.637 176.302 C 222.695 180.135,222.656 180.333,221.846 180.333 C 221.038 180.333,221.000 180.171,220.999 176.675 C 220.999 172.458,220.494 171.549,218.487 172.151 C 217.261 172.518,217.167 172.840,217.167 176.630 C 217.167 180.312,217.142 180.400,216.136 180.303 L 215.583 180.250 215.500 176.721 C 215.419 173.282,215.407 173.182,215.017 172.768 C 214.152 171.847,212.734 171.855,212.003 172.785 C 211.692 173.180,211.667 173.456,211.667 176.491 C 211.667 180.191,211.613 180.395,210.659 180.305 L 210.083 180.250 210.083 175.583 L 210.083 170.917 210.724 170.864 C 211.163 170.828,211.425 170.894,211.557 171.076 C 211.731 171.314,211.815 171.306,212.417 170.993 C 213.469 170.445,215.092 170.584,215.981 171.298 M244.236 171.228 C 245.484 172.180,245.508 172.283,245.459 176.500 L 245.417 180.250 244.779 180.302 C 244.251 180.346,244.126 180.296,244.051 180.011 C 243.941 179.591,243.982 179.590,243.254 180.020 C 241.634 180.976,238.987 180.409,238.332 178.965 C 237.182 176.432,239.032 174.500,242.610 174.500 L 244.000 174.500 244.000 173.821 C 244.000 171.982,241.064 171.359,240.133 173.000 C 239.674 173.808,238.149 173.540,238.451 172.704 C 239.130 170.818,242.554 169.945,244.236 171.228 M255.946 171.264 C 257.122 172.204,257.175 172.443,257.126 176.583 L 257.083 180.250 256.417 180.250 L 255.750 180.250 255.667 176.803 C 255.591 173.666,255.553 173.316,255.243 172.901 C 254.488 171.891,252.873 171.821,251.990 172.760 C 251.591 173.185,251.582 173.254,251.532 176.550 C 251.500 178.596,251.411 179.990,251.303 180.120 C 251.079 180.389,250.297 180.397,250.033 180.133 C 249.822 179.922,249.731 171.627,249.934 171.097 C 250.095 170.680,251.339 170.735,251.451 171.165 C 251.536 171.489,251.547 171.489,251.977 171.188 C 253.037 170.447,254.970 170.484,255.946 171.264 M266.575 170.996 C 267.151 171.289,267.240 171.297,267.408 171.067 C 267.537 170.890,267.805 170.826,268.257 170.863 L 268.917 170.917 268.917 176.083 C 268.917 181.944,268.875 182.151,267.505 183.144 C 266.389 183.953,263.839 184.271,263.451 183.651 C 263.114 183.113,263.448 182.500,264.078 182.500 C 266.006 182.500,267.140 181.769,267.291 180.429 C 267.390 179.546,267.428 179.569,266.583 180.000 C 264.206 181.212,261.744 179.728,261.334 176.836 C 260.702 172.380,263.398 169.376,266.575 170.996 M289.958 170.923 C 291.673 171.640,291.850 172.190,291.795 176.625 L 291.750 180.250 291.136 180.301 C 290.665 180.340,290.481 180.276,290.348 180.028 C 290.178 179.709,290.164 179.710,289.463 180.060 C 287.263 181.160,284.572 180.087,284.374 178.032 C 284.156 175.766,285.766 174.500,288.864 174.500 L 290.167 174.500 290.167 173.679 C 290.167 171.997,287.472 171.341,286.545 172.798 C 285.917 173.786,284.422 173.700,284.741 172.695 C 285.262 171.054,288.025 170.115,289.958 170.923 M301.075 170.996 C 301.651 171.289,301.740 171.297,301.908 171.067 C 302.037 170.890,302.305 170.826,302.757 170.863 L 303.417 170.917 303.461 175.583 C 303.511 180.769,303.412 181.626,302.662 182.537 C 301.645 183.770,298.470 184.545,298.004 183.674 C 297.647 183.008,297.915 182.501,298.628 182.493 C 300.619 182.470,301.833 181.652,301.833 180.336 C 301.833 179.560,301.843 179.564,301.129 179.999 C 299.384 181.063,296.655 179.901,296.051 177.836 C 294.711 173.256,297.652 169.251,301.075 170.996 M313.047 170.891 C 314.330 171.428,315.333 173.239,315.333 175.018 C 315.333 176.301,315.251 176.333,311.988 176.333 L 309.167 176.333 309.169 176.875 C 309.179 179.014,312.320 179.837,313.640 178.046 C 314.031 177.516,314.869 177.754,314.963 178.422 C 315.226 180.292,310.547 181.132,308.777 179.533 C 307.697 178.557,307.138 174.837,307.794 172.990 C 308.445 171.158,311.126 170.087,313.047 170.891 M121.057 174.393 C 121.685 176.304,122.258 177.804,122.331 177.726 C 122.404 177.648,122.851 176.346,123.324 174.833 C 124.641 170.620,124.494 170.925,125.236 170.864 C 126.260 170.779,126.252 170.838,124.427 176.173 C 121.972 183.356,121.790 183.694,120.267 183.923 C 118.596 184.173,118.179 183.047,119.750 182.526 C 120.467 182.289,120.635 182.145,120.951 181.500 C 121.493 180.396,121.465 180.245,119.839 175.488 C 118.210 170.725,118.219 170.793,119.224 170.866 L 119.917 170.917 121.057 174.393 M142.500 174.250 C 142.555 176.460,142.653 177.705,142.791 177.945 C 143.562 179.292,145.459 179.380,146.401 178.113 C 146.721 177.683,146.757 177.361,146.833 174.280 L 146.917 170.917 147.583 170.917 L 148.250 170.917 148.250 175.583 L 148.250 180.250 147.636 180.301 C 147.166 180.340,146.981 180.276,146.849 180.030 C 146.681 179.714,146.659 179.716,145.893 180.104 C 144.190 180.966,141.919 180.210,141.225 178.550 C 140.983 177.969,140.888 171.168,141.119 170.937 C 141.185 170.871,141.503 170.840,141.827 170.867 L 142.417 170.917 142.500 174.250 M274.669 174.250 C 274.728 176.580,274.822 177.717,274.980 178.026 C 275.557 179.156,277.483 179.339,278.370 178.347 L 278.833 177.828 278.836 174.706 C 278.838 170.800,278.838 170.801,279.730 170.866 L 280.417 170.917 280.417 175.583 L 280.417 180.250 279.803 180.301 C 279.333 180.340,279.148 180.276,279.016 180.030 C 278.847 179.714,278.825 179.716,278.060 180.104 C 276.684 180.800,275.010 180.511,273.969 179.396 C 273.232 178.607,273.167 178.198,273.167 174.396 L 273.167 170.814 273.875 170.865 L 274.583 170.917 274.669 174.250 M131.904 172.308 C 130.251 173.078,130.071 177.531,131.648 178.654 C 133.156 179.727,135.032 178.675,135.251 176.634 C 135.625 173.139,134.166 171.253,131.904 172.308 M169.530 172.329 C 167.269 173.746,167.981 179.000,170.434 179.000 C 172.055 179.000,172.580 178.164,172.580 175.583 C 172.580 172.607,171.287 171.228,169.530 172.329 M189.649 172.333 C 189.006 172.672,188.697 173.227,188.627 174.167 L 188.583 174.750 190.750 174.750 L 192.917 174.750 192.962 174.167 C 193.087 172.566,191.191 171.517,189.649 172.333 M264.337 172.284 C 262.428 173.270,262.330 177.800,264.196 178.765 C 266.022 179.709,267.229 178.580,267.305 175.857 C 267.394 172.654,266.261 171.290,264.337 172.284 M298.845 172.292 C 297.694 172.879,297.224 174.359,297.495 176.547 C 297.781 178.851,299.624 179.806,301.127 178.430 L 301.750 177.860 301.798 175.722 C 301.853 173.276,301.647 172.684,300.585 172.240 C 299.840 171.929,299.540 171.938,298.845 172.292 M310.378 172.247 C 309.672 172.554,309.146 173.414,309.205 174.167 L 309.250 174.750 311.417 174.750 L 313.583 174.750 313.636 174.297 C 313.815 172.743,311.945 171.566,310.378 172.247 M73.760 175.998 C 71.524 176.429,71.799 179.000,74.081 179.000 C 75.799 179.000,76.500 178.387,76.500 176.888 L 76.500 175.833 75.458 175.852 C 74.885 175.863,74.121 175.929,73.760 175.998 M201.260 175.998 C 199.024 176.428,199.319 179.000,201.604 179.000 C 203.298 179.000,204.000 178.381,204.000 176.888 L 204.000 175.833 202.958 175.852 C 202.385 175.863,201.621 175.929,201.260 175.998 M241.333 175.988 C 238.924 176.470,239.050 179.000,241.483 179.000 C 243.252 179.000,244.000 178.335,244.000 176.761 L 244.000 175.833 242.958 175.852 C 242.385 175.863,241.654 175.924,241.333 175.988 M287.515 176.014 C 285.235 176.462,285.460 179.000,287.779 179.000 C 289.551 179.000,290.167 178.438,290.167 176.820 L 290.167 175.833 289.208 175.852 C 288.681 175.862,287.919 175.935,287.515 176.014 " stroke="none" fill="#fcfcfc" fill-rule="evenodd"></path><path id="path1" d="M185.417 4.828 C 179.175 5.378,173.429 7.628,168.560 11.430 C 167.234 12.466,167.159 12.500,166.220 12.501 C 164.462 12.502,163.587 13.420,163.618 15.231 C 163.635 16.165,163.593 16.269,162.756 17.402 C 159.422 21.910,157.312 27.236,156.744 32.576 C 156.633 33.619,156.562 33.787,156.045 34.243 C 155.274 34.922,155.000 35.495,155.000 36.430 C 155.000 37.162,155.502 38.333,155.815 38.333 C 156.313 38.333,156.632 39.051,156.826 40.611 C 157.545 46.369,161.176 54.255,164.481 57.234 C 164.775 57.499,164.833 57.742,164.833 58.708 C 164.833 59.786,165.171 60.833,165.518 60.833 C 166.252 60.833,166.667 61.821,166.667 63.570 L 166.667 65.339 165.761 67.145 C 160.994 76.650,161.117 88.186,166.093 98.208 C 167.231 100.500,167.248 100.507,168.065 99.042 C 173.543 89.211,173.640 76.300,168.314 65.798 C 168.069 65.316,168.000 64.815,168.000 63.520 C 168.000 60.879,168.086 60.840,170.414 62.419 C 175.020 65.542,180.189 67.303,186.083 67.757 C 188.119 67.914,188.000 67.704,187.999 71.145 L 187.998 74.083 187.112 75.833 C 181.595 86.733,181.647 99.289,187.257 110.958 C 188.666 113.890,188.574 113.826,189.389 112.431 C 195.718 101.612,195.993 86.623,190.073 75.128 C 189.684 74.374,189.667 74.202,189.667 71.176 C 189.667 67.632,189.655 67.667,190.908 67.667 C 195.239 67.667,202.308 64.998,206.854 61.647 C 208.822 60.196,209.333 60.567,209.333 63.449 L 209.333 65.397 208.495 67.110 C 203.607 77.093,203.942 89.881,209.338 99.292 C 209.965 100.385,210.026 100.381,210.707 99.208 C 216.049 90.013,216.418 77.122,211.624 67.189 C 210.939 65.769,210.929 65.722,210.868 63.632 L 210.807 61.513 211.556 60.785 C 212.525 59.843,212.764 59.042,212.418 57.900 C 212.080 56.785,212.040 56.912,213.239 55.309 C 216.520 50.922,218.409 46.440,219.260 41.022 L 219.558 39.128 220.320 38.658 C 222.159 37.526,222.229 35.151,220.452 34.165 C 219.583 33.682,219.547 33.628,219.414 32.591 C 218.684 26.917,216.888 22.277,213.672 17.755 C 213.133 16.996,213.083 16.829,213.083 15.755 C 213.083 13.852,212.215 13.000,210.276 13.000 C 209.641 13.000,209.307 12.919,209.146 12.725 C 208.784 12.289,205.876 10.148,204.461 9.275 C 199.073 5.951,191.839 4.262,185.417 4.828 M189.691 5.664 C 196.556 6.315,201.760 8.260,206.667 12.006 C 208.571 13.460,208.761 13.702,208.414 14.230 C 208.104 14.704,208.028 15.608,208.224 16.500 C 208.383 17.222,203.820 22.004,203.216 21.748 C 201.524 21.033,200.609 21.036,199.515 21.760 C 198.646 22.335,199.039 22.645,193.169 16.762 L 188.088 11.669 182.973 16.774 C 178.826 20.913,177.801 21.854,177.554 21.750 C 176.170 21.166,175.927 21.129,174.857 21.337 L 173.797 21.543 171.155 18.905 L 168.512 16.266 168.610 15.331 C 168.682 14.642,168.637 14.259,168.437 13.873 C 168.044 13.113,168.048 13.105,169.458 12.033 C 174.388 8.287,179.549 6.333,186.250 5.675 C 186.983 5.603,187.669 5.534,187.774 5.522 C 187.879 5.510,188.741 5.574,189.691 5.664 M197.429 22.814 C 197.279 23.055,179.040 23.074,178.667 22.833 C 178.467 22.704,179.384 21.705,183.211 17.881 L 188.006 13.090 192.775 17.859 C 195.588 20.672,197.497 22.704,197.429 22.814 M165.030 17.265 C 165.377 17.445,165.855 17.512,166.513 17.474 L 167.484 17.417 170.165 20.073 C 172.748 22.632,172.841 22.748,172.715 23.240 C 172.516 24.010,172.609 25.238,172.909 25.819 C 173.280 26.536,173.424 26.360,168.366 31.375 L 163.869 35.833 162.101 35.833 C 160.194 35.833,160.190 35.832,159.436 34.747 C 159.263 34.498,158.795 34.150,158.394 33.973 C 157.759 33.692,157.606 33.530,157.633 33.165 C 158.004 28.155,161.087 20.560,164.043 17.375 C 164.458 16.928,164.392 16.936,165.030 17.265 M212.807 18.299 C 214.944 20.999,217.007 25.547,217.885 29.500 C 218.739 33.342,218.738 33.641,217.877 34.164 C 217.585 34.342,217.154 34.791,216.920 35.161 L 216.496 35.833 214.386 35.833 L 212.277 35.833 207.972 31.549 C 203.285 26.884,203.279 26.877,203.858 26.106 C 204.204 25.645,204.250 25.401,204.250 24.045 L 204.250 22.507 205.750 20.992 C 206.575 20.158,207.681 19.099,208.207 18.639 L 209.165 17.802 209.957 17.998 C 210.610 18.159,210.868 18.149,211.417 17.942 C 212.312 17.604,212.241 17.585,212.807 18.299 M197.822 23.990 C 197.954 24.073,198.164 24.503,198.291 24.945 C 198.788 26.686,199.067 26.240,194.998 30.219 C 191.024 34.103,191.183 33.986,190.524 33.517 C 189.454 32.755,187.829 32.687,186.589 33.351 L 185.956 33.691 182.201 29.947 L 178.447 26.203 178.664 25.180 C 178.786 24.604,178.998 24.088,179.149 24.000 C 179.498 23.796,197.500 23.786,197.822 23.990 M174.570 27.268 C 174.800 27.356,174.833 27.887,174.833 31.500 C 174.833 35.113,174.800 35.644,174.570 35.732 C 174.068 35.925,165.861 35.846,165.738 35.648 C 165.613 35.444,173.783 27.167,174.110 27.167 C 174.218 27.167,174.425 27.212,174.570 27.268 M181.184 30.964 C 185.071 34.831,185.519 35.432,184.736 35.732 C 184.145 35.959,176.215 35.843,176.017 35.604 C 175.884 35.443,175.840 34.214,175.872 31.484 L 175.917 27.593 176.333 27.382 C 177.130 26.980,177.325 27.124,181.184 30.964 M200.232 27.430 C 200.435 27.958,200.345 35.422,200.133 35.633 C 199.909 35.857,192.391 35.925,192.071 35.706 C 191.409 35.252,191.587 35.013,195.531 31.055 C 199.381 27.193,199.968 26.741,200.232 27.430 M206.314 31.398 C 208.697 33.782,210.329 35.539,210.262 35.648 C 210.139 35.846,202.098 35.925,201.597 35.732 C 201.367 35.644,201.333 35.120,201.333 31.579 C 201.333 27.402,201.337 27.381,202.001 27.346 C 202.139 27.339,204.080 29.162,206.314 31.398 M168.916 41.666 C 174.180 46.928,174.038 46.749,173.422 47.328 C 172.513 48.182,172.324 49.768,172.969 51.124 L 173.250 51.715 170.750 54.106 L 168.250 56.496 167.281 56.498 C 166.748 56.499,166.172 56.575,166.001 56.666 C 165.496 56.936,165.210 56.707,163.923 55.008 C 160.541 50.543,158.166 44.892,157.754 40.333 L 157.641 39.083 158.529 38.667 C 159.238 38.334,159.483 38.109,159.747 37.546 C 160.150 36.690,160.168 36.684,162.291 36.721 L 163.999 36.750 168.916 41.666 M174.458 36.772 L 174.833 36.872 174.833 41.353 C 174.833 44.813,174.786 45.833,174.626 45.833 C 174.363 45.833,165.833 37.320,165.833 37.057 C 165.833 36.700,173.273 36.454,174.458 36.772 M184.700 36.875 C 184.845 36.990,185.050 37.359,185.157 37.695 C 185.263 38.031,185.459 38.397,185.592 38.507 C 185.725 38.617,185.833 38.829,185.833 38.977 C 185.833 39.329,178.169 47.000,177.819 47.000 C 177.580 47.000,176.870 46.719,176.167 46.346 C 175.760 46.131,175.709 37.170,176.112 36.875 C 176.321 36.722,177.464 36.667,180.417 36.667 C 183.381 36.667,184.505 36.721,184.700 36.875 M200.011 36.839 C 200.346 37.019,200.528 45.951,200.206 46.433 C 199.602 47.337,199.556 47.305,195.194 42.944 L 191.102 38.851 191.500 37.967 C 191.719 37.481,192.011 36.990,192.148 36.875 C 192.466 36.609,199.521 36.577,200.011 36.839 M210.070 36.768 C 210.215 36.823,210.333 36.954,210.333 37.058 C 210.333 37.319,201.804 45.833,201.543 45.833 C 201.166 45.833,201.247 36.880,201.625 36.782 C 202.071 36.665,209.769 36.653,210.070 36.768 M216.623 36.950 C 216.787 37.444,217.476 38.279,217.971 38.583 L 218.514 38.917 218.411 40.083 C 218.062 44.038,216.135 49.247,213.628 53.010 C 211.531 56.159,211.504 56.182,209.891 56.244 L 208.531 56.296 206.170 53.914 L 203.808 51.532 204.071 51.024 C 204.696 49.816,204.236 47.761,203.170 47.003 C 202.893 46.805,202.667 46.555,202.667 46.446 C 202.667 46.215,211.961 36.916,212.333 36.775 C 212.826 36.587,216.553 36.740,216.623 36.950 M194.147 43.937 C 196.638 46.406,198.330 48.205,198.262 48.314 C 198.046 48.664,178.682 48.568,178.548 48.217 C 178.465 48.003,179.455 46.937,182.609 43.841 L 186.779 39.748 188.348 39.747 L 189.917 39.746 194.147 43.937 M197.595 49.686 C 197.714 49.878,188.393 59.333,188.086 59.333 C 187.805 59.333,178.833 50.270,178.833 49.987 C 178.833 49.841,178.883 49.672,178.944 49.611 C 179.148 49.407,197.468 49.481,197.595 49.686 M199.014 51.560 C 199.778 52.428,200.742 52.768,201.932 52.590 L 202.711 52.473 205.211 54.974 C 207.043 56.806,207.684 57.548,207.606 57.751 C 207.548 57.903,207.500 58.454,207.500 58.976 L 207.500 59.925 206.125 60.931 C 196.164 68.217,182.935 68.799,172.251 62.421 C 169.993 61.073,169.429 60.535,169.654 59.947 C 169.907 59.285,169.879 58.706,169.548 57.782 L 169.260 56.980 171.622 54.635 C 173.661 52.611,174.036 52.306,174.367 52.407 C 175.807 52.848,177.085 52.587,177.901 51.684 C 178.399 51.134,178.332 51.080,183.332 56.082 L 188.079 60.831 193.087 55.832 C 198.737 50.194,198.171 50.602,199.014 51.560 M19.895 127.294 C 19.514 127.541,4.156 158.506,4.373 158.589 C 4.489 158.633,9.308 158.650,15.083 158.627 L 25.583 158.583 26.859 156.083 C 27.560 154.708,28.100 153.527,28.057 153.458 C 28.015 153.390,24.685 153.333,20.657 153.333 C 14.253 153.333,13.333 153.302,13.333 153.083 C 13.333 152.945,16.185 147.129,19.671 140.158 C 23.157 133.186,25.965 127.412,25.911 127.325 C 25.797 127.140,20.177 127.111,19.895 127.294 M41.901 127.294 C 41.721 127.415,26.167 158.309,26.167 158.545 C 26.167 158.612,32.129 158.667,39.415 158.667 L 52.664 158.667 53.071 158.208 C 53.295 157.956,54.481 156.550,55.707 155.083 L 57.935 152.417 63.884 152.373 C 69.474 152.332,69.833 152.347,69.827 152.623 C 69.824 152.784,69.608 154.154,69.347 155.667 C 69.086 157.179,68.906 158.473,68.946 158.542 C 69.123 158.842,75.306 158.683,75.400 158.375 C 75.449 158.215,75.684 156.771,75.922 155.167 C 76.161 153.563,76.421 151.837,76.499 151.333 C 76.578 150.829,76.729 149.854,76.833 149.167 C 76.938 148.479,77.087 147.504,77.165 147.000 C 77.242 146.496,77.500 144.808,77.737 143.250 C 77.973 141.692,78.320 139.442,78.507 138.250 C 78.813 136.295,79.361 132.704,79.866 129.333 C 79.969 128.646,80.060 127.896,80.068 127.667 L 80.083 127.250 76.639 127.205 L 73.194 127.160 70.940 129.788 C 69.701 131.234,67.051 134.330,65.052 136.669 C 63.052 139.008,59.029 143.715,56.110 147.128 L 50.804 153.333 43.069 153.333 C 36.203 153.333,35.333 153.304,35.333 153.076 C 35.333 152.934,36.199 151.097,37.257 148.992 L 39.181 145.167 46.648 145.167 C 53.550 145.167,54.135 145.145,54.374 144.875 C 54.659 144.553,56.833 140.233,56.833 139.987 C 56.833 139.895,53.875 139.833,49.510 139.833 C 45.095 139.833,42.148 139.771,42.089 139.676 C 42.036 139.589,42.761 137.978,43.702 136.094 L 45.411 132.670 53.581 132.627 L 61.750 132.583 63.048 130.037 C 63.763 128.636,64.302 127.417,64.247 127.328 C 64.129 127.138,42.184 127.104,41.901 127.294 M85.840 142.820 C 81.528 151.443,78.000 158.539,78.000 158.587 C 78.000 158.635,79.406 158.654,81.125 158.629 L 84.250 158.583 87.377 152.375 L 90.504 146.167 94.794 146.170 C 101.745 146.176,101.937 146.423,99.227 151.861 C 97.388 155.551,96.888 156.787,96.807 157.838 L 96.750 158.583 100.160 158.583 L 103.571 158.583 103.827 158.127 C 104.036 157.754,104.045 157.610,103.875 157.338 C 103.445 156.649,103.642 155.897,105.022 152.964 C 108.090 146.445,108.260 145.299,106.339 144.087 C 105.443 143.521,105.463 143.482,106.960 142.870 C 114.635 139.732,118.795 129.604,113.224 127.619 C 112.291 127.286,111.862 127.268,102.965 127.206 L 93.680 127.140 85.840 142.820 M121.228 127.294 C 120.984 127.453,105.667 158.086,105.667 158.416 C 105.667 158.745,111.559 158.796,111.782 158.469 C 111.856 158.360,114.279 153.582,117.167 147.850 C 122.422 137.418,122.833 136.703,122.833 137.980 C 122.833 138.351,122.905 139.389,122.993 140.286 C 123.080 141.183,123.233 142.892,123.332 144.083 C 123.431 145.275,123.585 147.075,123.674 148.083 C 123.763 149.092,123.952 151.344,124.095 153.088 C 124.237 154.832,124.405 156.782,124.468 157.421 L 124.583 158.583 127.763 158.628 L 130.944 158.674 138.722 143.072 C 143.001 134.491,146.459 127.402,146.407 127.318 C 146.246 127.057,140.561 127.128,140.304 127.395 C 140.182 127.520,137.759 132.283,134.918 137.978 C 132.077 143.673,129.697 148.333,129.629 148.333 C 129.439 148.333,129.360 147.779,129.166 145.083 C 128.996 142.699,128.883 141.324,128.507 137.000 C 128.334 135.018,128.110 132.384,127.852 129.305 C 127.770 128.327,127.653 127.446,127.592 127.347 C 127.464 127.141,121.539 127.092,121.228 127.294 M166.393 127.294 C 166.176 127.433,165.934 128.384,165.085 132.417 C 164.757 133.975,164.411 135.587,164.316 136.000 C 163.953 137.574,163.820 138.185,163.083 141.667 C 162.666 143.637,162.252 145.569,162.162 145.958 C 162.073 146.348,161.927 146.985,161.838 147.375 C 161.251 149.945,159.500 158.218,159.500 158.420 C 159.500 158.628,159.941 158.667,162.319 158.667 L 165.138 158.667 172.014 148.958 C 175.796 143.619,179.594 138.258,180.456 137.045 C 182.562 134.079,182.693 134.008,182.080 136.171 C 181.860 136.948,180.364 142.207,178.757 147.858 C 177.149 153.509,175.833 158.252,175.833 158.399 C 175.833 158.685,181.030 158.815,181.425 158.539 C 181.662 158.374,182.357 157.489,190.423 147.083 C 194.261 142.133,199.261 135.688,201.535 132.760 C 203.809 129.832,205.608 127.374,205.531 127.298 C 205.455 127.222,203.974 127.180,202.240 127.205 L 199.088 127.250 195.308 132.667 C 193.229 135.646,191.231 138.502,190.868 139.013 C 190.506 139.524,188.580 142.280,186.590 145.138 C 183.451 149.644,182.667 150.665,182.667 150.243 C 182.667 150.194,184.097 145.087,185.846 138.895 C 187.594 132.703,188.984 127.531,188.934 127.402 C 188.861 127.212,188.285 127.167,185.933 127.167 L 183.022 127.167 182.455 127.875 C 182.142 128.265,178.563 133.308,174.501 139.083 C 170.439 144.858,166.939 149.769,166.724 149.996 C 166.077 150.680,165.983 151.056,169.084 140.500 C 169.421 139.354,169.946 137.554,170.252 136.500 C 170.557 135.446,171.266 133.014,171.827 131.097 C 172.388 129.179,172.809 127.510,172.762 127.388 C 172.668 127.144,166.763 127.057,166.393 127.294 M208.368 127.375 C 208.138 127.653,192.833 158.346,192.833 158.530 C 192.833 158.609,194.240 158.654,195.958 158.629 L 199.083 158.583 206.785 143.167 C 211.021 134.688,214.489 127.619,214.493 127.458 C 214.502 127.084,208.675 127.004,208.368 127.375 M215.895 127.294 C 215.625 127.470,213.164 132.442,213.286 132.564 C 213.343 132.621,215.439 132.667,217.944 132.667 C 220.450 132.667,222.500 132.694,222.500 132.726 C 222.500 132.759,219.650 138.523,216.167 145.535 C 212.683 152.547,209.833 158.371,209.833 158.476 C 209.833 158.612,210.710 158.667,212.917 158.667 L 216.002 158.667 222.478 145.708 L 228.954 132.750 233.547 132.667 C 236.073 132.621,238.175 132.546,238.218 132.500 C 238.433 132.270,240.667 127.636,240.667 127.419 C 240.667 127.146,216.311 127.024,215.895 127.294 M243.724 128.042 C 239.733 135.824,228.549 158.449,228.645 158.545 C 228.716 158.616,230.119 158.654,231.762 158.629 L 234.750 158.583 238.333 151.500 L 241.917 144.417 248.125 144.373 C 253.582 144.335,254.333 144.360,254.333 144.582 C 254.333 144.721,252.795 147.911,250.914 151.672 C 248.533 156.433,247.561 158.534,247.712 158.592 C 247.831 158.637,249.238 158.654,250.839 158.629 L 253.750 158.583 261.553 143.020 C 266.135 133.881,269.295 127.395,269.208 127.308 C 269.126 127.226,267.714 127.179,266.071 127.204 L 263.083 127.250 260.123 133.125 L 257.163 139.000 251.008 139.000 C 247.623 139.000,244.819 138.944,244.777 138.875 C 244.735 138.806,245.969 136.213,247.519 133.112 C 249.069 130.011,250.294 127.405,250.242 127.320 C 250.190 127.236,248.803 127.167,247.160 127.167 L 244.172 127.167 243.724 128.042 M293.034 127.280 C 292.822 127.365,277.333 158.167,277.333 158.503 C 277.333 158.615,278.407 158.658,280.458 158.629 L 283.583 158.583 286.250 153.333 L 288.917 148.083 291.250 146.473 C 292.814 145.394,293.645 144.914,293.772 145.019 C 293.875 145.104,294.280 146.504,294.672 148.129 C 295.063 149.754,295.804 152.771,296.317 154.833 L 297.250 158.583 300.905 158.628 C 302.915 158.653,304.613 158.616,304.678 158.545 C 304.743 158.474,304.430 157.104,303.983 155.500 C 303.535 153.896,302.833 151.383,302.423 149.917 C 302.012 148.450,301.566 146.837,301.432 146.333 C 301.297 145.829,300.920 144.458,300.594 143.287 C 300.267 142.115,300.000 141.054,300.000 140.928 C 300.000 140.682,300.405 140.381,306.250 136.292 C 317.233 128.607,318.829 127.461,318.742 127.320 C 318.689 127.235,317.141 127.167,315.259 127.167 L 311.871 127.167 310.853 127.875 C 309.895 128.542,305.808 131.476,300.917 135.008 C 293.930 140.053,292.748 140.860,292.699 140.618 C 292.672 140.480,294.111 137.443,295.899 133.869 C 297.686 130.295,299.103 127.325,299.047 127.269 C 298.924 127.146,293.342 127.156,293.034 127.280 M332.217 127.274 C 332.108 127.319,331.208 128.304,330.217 129.464 C 327.964 132.102,322.637 138.337,316.639 145.355 C 314.103 148.322,310.559 152.469,308.764 154.569 C 306.969 156.670,305.500 158.451,305.500 158.528 C 305.500 158.699,311.514 158.710,311.759 158.539 C 311.855 158.472,313.077 157.048,314.473 155.375 L 317.012 152.333 322.923 152.333 C 328.443 152.333,328.833 152.353,328.827 152.625 C 328.824 152.785,328.608 154.154,328.347 155.667 C 328.086 157.179,327.906 158.473,327.946 158.542 C 327.987 158.610,329.435 158.667,331.165 158.667 C 334.751 158.667,334.382 158.851,334.661 156.917 C 334.830 155.739,335.065 154.206,335.682 150.250 C 335.867 149.058,336.084 147.633,336.163 147.083 C 336.366 145.670,336.627 143.966,337.513 138.250 C 337.698 137.058,337.918 135.633,338.002 135.083 C 338.085 134.533,338.381 132.594,338.659 130.774 C 338.937 128.953,339.123 127.397,339.072 127.315 C 338.979 127.164,332.582 127.126,332.217 127.274 M344.229 127.294 C 343.914 127.499,341.639 132.188,341.734 132.436 C 341.807 132.625,342.641 132.667,346.328 132.667 C 349.228 132.667,350.833 132.726,350.833 132.834 C 350.833 132.926,347.983 138.700,344.500 145.667 C 341.017 152.633,338.167 158.408,338.167 158.500 C 338.167 158.605,339.300 158.667,341.250 158.667 L 344.333 158.667 350.833 145.667 L 357.334 132.667 361.916 132.667 L 366.498 132.667 367.824 130.019 C 368.553 128.563,369.103 127.326,369.047 127.269 C 368.900 127.122,344.455 127.147,344.229 127.294 M373.061 127.294 C 372.897 127.401,357.333 158.363,357.333 158.584 C 357.333 158.631,362.602 158.650,369.042 158.626 L 380.750 158.583 381.970 156.193 C 382.642 154.879,383.150 153.698,383.101 153.568 C 383.025 153.370,381.706 153.333,374.755 153.333 C 367.421 153.333,366.500 153.305,366.500 153.076 C 366.500 152.934,367.366 151.097,368.424 148.992 L 370.348 145.167 377.815 145.167 C 384.717 145.167,385.301 145.145,385.540 144.875 C 385.837 144.538,388.000 140.255,388.000 140.002 C 388.000 139.891,385.516 139.833,380.677 139.833 C 376.262 139.833,373.314 139.771,373.256 139.676 C 373.202 139.589,373.928 137.978,374.868 136.094 L 376.578 132.670 384.747 132.627 L 392.917 132.583 394.215 130.037 C 394.929 128.636,395.469 127.417,395.414 127.328 C 395.296 127.138,373.354 127.104,373.061 127.294 M107.676 132.948 C 109.545 134.053,107.396 138.888,104.417 140.282 L 103.417 140.750 98.375 140.799 C 94.977 140.831,93.333 140.791,93.333 140.675 C 93.333 140.580,94.214 138.739,95.290 136.584 L 97.247 132.667 102.223 132.667 C 106.596 132.667,107.256 132.701,107.676 132.948 M72.667 135.511 C 72.667 135.793,72.254 138.460,71.750 141.439 C 71.246 144.418,70.833 146.888,70.833 146.928 C 70.833 146.967,68.990 147.000,66.736 147.000 C 63.746 147.000,62.656 146.949,62.702 146.810 C 62.797 146.524,72.397 135.003,72.542 135.002 C 72.610 135.001,72.667 135.230,72.667 135.511 M331.707 135.204 C 331.744 135.316,331.566 136.648,331.312 138.162 C 331.057 139.677,330.768 141.404,330.669 142.000 C 330.571 142.596,330.343 143.940,330.162 144.987 C 329.981 146.035,329.833 146.916,329.833 146.946 C 329.833 146.976,327.996 147.000,325.750 147.000 C 323.504 147.000,321.667 146.941,321.667 146.870 C 321.667 146.798,323.662 144.345,326.101 141.418 C 328.541 138.492,330.724 135.850,330.955 135.549 C 331.400 134.965,331.597 134.874,331.707 135.204 M102.452 167.437 C 102.387 167.502,102.333 170.398,102.333 173.872 L 102.333 180.188 102.875 180.136 L 103.417 180.083 103.500 176.750 C 103.552 174.681,103.656 173.290,103.776 173.081 C 104.545 171.746,106.342 171.545,107.425 172.675 L 107.917 173.188 108.000 176.636 L 108.083 180.083 108.667 180.083 L 109.250 180.083 109.297 176.750 C 109.350 172.975,109.230 172.383,108.243 171.516 C 107.371 170.750,105.088 170.569,104.378 171.209 C 103.662 171.854,103.588 171.711,103.500 169.500 C 103.417 167.419,103.416 167.417,102.994 167.367 C 102.761 167.340,102.517 167.371,102.452 167.437 M172.952 167.437 C 172.887 167.502,172.833 168.481,172.833 169.611 C 172.833 170.742,172.792 171.667,172.741 171.667 C 172.690 171.667,172.373 171.479,172.036 171.250 C 170.483 170.195,168.120 170.925,167.270 172.723 C 166.736 173.852,166.638 176.738,167.090 178.020 C 167.793 180.012,170.450 181.006,172.004 179.857 C 172.606 179.411,172.771 179.409,172.885 179.845 C 172.957 180.122,173.084 180.179,173.529 180.136 L 174.083 180.083 174.083 173.750 L 174.083 167.417 173.577 167.367 C 173.299 167.340,173.018 167.371,172.952 167.437 M232.747 167.532 C 232.700 167.652,232.682 170.526,232.706 173.917 L 232.750 180.083 233.333 180.083 L 233.917 180.083 233.917 173.750 L 233.917 167.417 233.374 167.364 C 233.038 167.332,232.799 167.396,232.747 167.532 M83.278 168.611 C 83.217 168.672,83.167 169.189,83.167 169.760 C 83.167 170.868,83.066 171.000,82.225 171.000 C 81.498 171.000,81.743 171.892,82.500 172.000 L 83.083 172.083 83.167 175.508 C 83.273 179.859,83.530 180.305,85.833 180.138 C 86.995 180.053,87.056 179.263,85.914 179.092 C 84.519 178.882,84.486 178.790,84.538 175.205 L 84.583 172.083 85.625 172.034 C 86.656 171.985,86.667 171.979,86.667 171.492 C 86.667 171.014,86.644 171.000,85.847 171.000 C 84.559 171.000,84.500 170.945,84.500 169.750 C 84.500 168.948,84.438 168.679,84.236 168.601 C 83.888 168.468,83.416 168.472,83.278 168.611 M61.835 171.090 C 60.225 171.812,59.761 172.797,59.755 175.504 C 59.747 178.939,60.782 180.250,63.501 180.250 C 65.447 180.250,67.735 178.469,66.972 177.550 C 66.656 177.168,65.972 177.361,65.667 177.917 C 64.729 179.622,62.167 179.571,61.292 177.830 C 60.863 176.975,60.887 174.182,61.332 173.201 C 62.143 171.414,64.804 171.467,65.685 173.288 C 66.059 174.061,66.593 174.240,67.014 173.733 C 67.342 173.338,66.615 172.064,65.695 171.422 C 64.810 170.804,62.848 170.636,61.835 171.090 M72.743 171.147 C 71.572 171.678,70.757 172.974,71.430 173.232 C 71.971 173.440,72.306 173.318,72.735 172.755 C 73.971 171.134,76.757 171.872,76.634 173.788 L 76.583 174.583 74.917 174.679 C 71.883 174.853,70.833 175.645,70.833 177.758 C 70.833 179.952,73.241 181.033,75.642 179.915 C 76.710 179.418,76.608 179.424,76.718 179.845 C 76.790 180.122,76.918 180.179,77.362 180.136 L 77.917 180.083 77.962 176.574 C 78.014 172.460,77.873 171.940,76.507 171.217 C 75.571 170.722,73.752 170.688,72.743 171.147 M92.668 171.090 C 89.919 172.323,89.628 178.130,92.235 179.742 C 94.193 180.952,96.930 180.238,97.737 178.306 C 98.178 177.251,97.060 176.899,96.500 177.917 C 95.586 179.578,93.009 179.574,92.167 177.910 C 91.780 177.147,91.817 173.766,92.220 173.027 C 93.100 171.414,95.687 171.571,96.518 173.288 C 96.893 174.061,97.427 174.240,97.847 173.733 C 98.175 173.338,97.448 172.064,96.528 171.422 C 95.644 170.804,93.681 170.636,92.668 171.090 M131.238 171.149 C 128.116 172.567,128.411 179.021,131.650 180.138 C 134.964 181.281,137.459 178.283,136.671 174.106 C 136.152 171.353,133.712 170.025,131.238 171.149 M155.750 170.991 C 155.567 171.066,155.274 171.286,155.099 171.480 C 154.671 171.957,154.333 171.929,154.333 171.417 C 154.333 170.914,153.285 170.784,153.101 171.264 C 152.945 171.670,152.986 179.721,153.146 179.972 C 153.225 180.098,153.494 180.170,153.768 180.138 L 154.250 180.083 154.333 176.909 C 154.437 172.961,154.884 172.091,156.757 172.193 C 157.611 172.239,157.833 172.098,157.833 171.508 C 157.833 170.859,156.737 170.587,155.750 170.991 M181.583 171.064 C 181.308 171.184,180.980 171.406,180.855 171.558 C 180.542 171.935,180.366 171.903,180.303 171.458 C 180.260 171.157,180.127 171.073,179.622 171.031 L 178.995 170.980 179.039 175.531 L 179.083 180.083 179.565 180.138 C 180.284 180.220,180.328 180.022,180.331 176.647 C 180.334 172.766,180.677 172.167,182.893 172.167 C 183.556 172.167,183.642 172.121,183.744 171.715 C 183.948 170.902,182.769 170.548,181.583 171.064 M188.985 171.221 C 186.167 172.708,186.347 178.704,189.249 180.023 C 190.744 180.702,193.157 180.183,193.999 179.002 C 194.730 177.975,193.769 177.503,192.824 178.425 C 191.237 179.975,188.605 179.114,188.466 176.999 L 188.417 176.250 191.417 176.157 C 193.067 176.106,194.445 176.049,194.479 176.032 C 194.781 175.878,194.343 173.105,193.903 172.385 C 192.972 170.863,190.687 170.322,188.985 171.221 M200.231 171.152 C 199.115 171.659,198.286 172.985,198.930 173.232 C 199.471 173.440,199.806 173.318,200.235 172.755 C 201.471 171.134,204.257 171.872,204.134 173.788 L 204.083 174.583 202.417 174.679 C 199.411 174.852,198.333 175.650,198.334 177.700 C 198.336 180.201,201.166 181.119,204.020 179.544 C 204.078 179.512,204.166 179.645,204.216 179.838 C 204.290 180.122,204.415 180.179,204.862 180.136 L 205.417 180.083 205.457 176.500 C 205.497 173.054,205.484 172.892,205.124 172.263 C 204.356 170.920,201.946 170.373,200.231 171.152 M212.279 171.210 C 211.683 171.556,211.631 171.561,211.479 171.290 C 211.374 171.101,211.115 171.000,210.739 171.000 L 210.161 171.000 210.206 175.542 L 210.250 180.083 210.732 180.138 C 211.453 180.221,211.495 180.026,211.497 176.531 C 211.501 172.668,211.590 172.405,213.030 171.999 C 213.512 171.864,213.786 171.884,214.312 172.094 C 215.504 172.571,215.572 172.802,215.667 176.667 L 215.750 180.083 216.333 180.083 L 216.917 180.083 216.962 176.678 C 217.014 172.779,217.149 172.364,218.487 172.004 C 220.559 171.446,221.062 172.315,221.167 176.637 L 221.250 180.083 221.833 180.083 L 222.417 180.083 222.417 176.417 C 222.417 173.251,222.377 172.678,222.128 172.221 C 221.247 170.612,218.535 170.324,217.164 171.695 L 216.662 172.197 216.184 171.685 C 215.294 170.732,213.484 170.512,212.279 171.210 M239.932 171.287 C 238.530 172.081,238.166 173.333,239.337 173.333 C 239.684 173.333,239.882 173.196,240.124 172.784 C 241.188 170.981,244.335 171.952,244.137 174.022 L 244.083 174.583 242.333 174.680 C 239.269 174.850,237.835 176.098,238.238 178.245 C 238.580 180.065,241.379 180.959,243.261 179.849 C 243.994 179.417,244.106 179.415,244.215 179.833 C 244.278 180.076,244.442 180.167,244.818 180.167 L 245.333 180.167 245.333 176.492 C 245.333 172.392,245.292 172.200,244.222 171.384 C 243.287 170.670,241.109 170.621,239.932 171.287 M252.667 170.945 C 252.529 171.001,252.218 171.187,251.974 171.357 C 251.421 171.744,251.392 171.743,251.282 171.322 C 251.210 171.045,251.082 170.988,250.638 171.030 L 250.083 171.083 250.083 175.583 L 250.083 180.083 250.667 180.083 L 251.250 180.083 251.333 176.667 C 251.433 172.570,251.702 171.979,253.479 171.944 C 255.384 171.907,255.732 172.612,255.833 176.720 L 255.917 180.083 256.458 180.136 L 257.000 180.188 257.000 176.577 C 257.000 172.530,256.922 172.172,255.867 171.368 C 255.278 170.918,253.353 170.664,252.667 170.945 M263.271 171.202 C 261.111 172.477,260.642 177.559,262.526 179.272 C 263.638 180.284,265.616 180.509,266.732 179.751 C 267.461 179.257,267.600 179.419,267.429 180.559 C 267.254 181.728,266.517 182.311,264.896 182.561 C 263.599 182.762,263.583 182.770,263.583 183.257 C 263.583 184.119,265.951 184.004,267.372 183.073 C 268.681 182.216,268.743 181.917,268.804 176.125 L 268.859 171.000 268.247 171.000 C 267.776 171.000,267.615 171.076,267.548 171.333 C 267.440 171.748,267.430 171.748,266.816 171.294 C 266.053 170.730,264.153 170.681,263.271 171.202 M286.505 171.097 C 284.985 171.757,284.335 173.333,285.584 173.333 C 285.818 173.333,286.128 173.114,286.401 172.755 C 287.640 171.131,290.333 171.808,290.333 173.743 L 290.333 174.624 288.533 174.698 C 285.715 174.814,284.651 175.572,284.540 177.543 C 284.394 180.154,287.207 181.148,290.194 179.541 C 290.255 179.508,290.355 179.640,290.417 179.834 C 290.505 180.111,290.641 180.175,291.056 180.134 L 291.583 180.083 291.624 176.500 C 291.672 172.318,291.559 171.908,290.172 171.208 C 289.278 170.757,287.419 170.701,286.505 171.097 M297.756 171.204 C 296.081 172.176,295.356 175.753,296.328 178.250 C 296.993 179.960,299.703 180.789,301.234 179.750 C 302.018 179.218,302.000 179.211,302.000 180.016 C 302.000 181.595,301.139 182.417,299.297 182.598 C 298.057 182.721,297.917 182.815,298.071 183.426 C 298.293 184.312,301.202 183.798,302.325 182.675 C 303.241 181.759,303.333 181.116,303.333 175.658 L 303.333 171.000 302.734 171.000 C 302.276 171.000,302.115 171.078,302.048 171.333 C 301.940 171.748,301.930 171.748,301.316 171.294 C 300.552 170.729,298.657 170.681,297.756 171.204 M309.700 171.112 C 306.928 172.478,306.897 178.478,309.655 179.875 C 311.496 180.808,314.833 179.905,314.833 178.475 C 314.833 177.852,314.179 177.757,313.607 178.298 C 311.866 179.945,309.250 179.205,309.038 177.005 L 308.958 176.167 311.862 176.167 C 315.142 176.167,315.167 176.158,315.167 174.997 C 315.167 171.836,312.327 169.817,309.700 171.112 M118.500 171.087 C 118.500 171.134,119.175 173.128,120.000 175.518 C 121.633 180.249,121.644 180.303,121.189 181.364 C 120.823 182.218,120.602 182.424,119.732 182.725 C 118.648 183.101,118.792 183.752,119.956 183.743 C 121.641 183.729,121.740 183.554,124.335 175.971 C 126.079 170.874,126.056 171.000,125.237 171.000 L 124.697 171.000 123.920 173.458 C 123.493 174.810,122.983 176.424,122.788 177.044 C 122.299 178.595,122.248 178.524,120.956 174.530 L 119.814 171.000 119.157 171.000 C 118.796 171.000,118.500 171.039,118.500 171.087 M141.167 174.489 C 141.167 178.790,141.323 179.283,142.917 180.018 C 144.034 180.534,146.122 180.246,146.574 179.515 C 146.738 179.249,147.000 179.458,147.000 179.854 C 147.000 180.130,147.093 180.179,147.542 180.136 L 148.083 180.083 148.128 175.542 L 148.172 171.000 147.586 171.000 L 147.000 171.000 146.999 173.958 C 146.998 178.122,146.652 178.954,144.852 179.127 C 142.827 179.322,142.442 178.572,142.366 174.292 L 142.308 171.000 141.737 171.000 L 141.167 171.000 141.167 174.489 M273.333 174.592 C 273.333 178.418,273.382 178.691,274.195 179.450 C 275.207 180.396,276.778 180.586,278.090 179.922 C 278.872 179.526,279.155 179.560,279.164 180.052 C 279.166 180.127,279.410 180.164,279.708 180.136 L 280.250 180.083 280.294 175.542 L 280.339 171.000 279.771 171.000 C 279.006 171.000,279.000 171.029,279.000 174.683 L 279.000 177.838 278.448 178.441 C 277.369 179.618,275.465 179.358,274.824 177.947 C 274.549 177.343,274.507 176.834,274.504 174.125 L 274.500 171.000 273.917 171.000 L 273.333 171.000 273.333 174.592 M134.114 172.197 C 135.742 172.980,136.042 176.993,134.583 178.458 C 132.624 180.424,130.500 178.910,130.500 175.547 C 130.500 172.477,131.934 171.148,134.114 172.197 M171.808 172.388 C 172.794 173.301,173.183 176.615,172.459 177.945 C 171.543 179.630,169.126 179.538,168.422 177.792 C 167.048 174.385,169.586 170.334,171.808 172.388 M191.948 172.197 C 192.929 172.669,193.620 174.624,192.903 174.899 C 192.504 175.052,188.782 175.015,188.530 174.855 C 188.271 174.691,188.404 173.695,188.783 172.945 C 189.265 171.994,190.780 171.636,191.948 172.197 M266.500 172.312 C 267.343 172.909,267.522 173.553,267.467 175.789 L 267.417 177.828 266.808 178.437 C 264.904 180.340,262.778 178.781,262.790 175.492 C 262.800 172.503,264.596 170.964,266.500 172.312 M300.966 172.271 C 302.552 173.293,302.450 177.989,300.823 178.862 C 298.846 179.922,297.305 178.494,297.296 175.592 C 297.285 172.559,299.002 171.006,300.966 172.271 M312.332 172.102 C 313.146 172.428,313.669 173.117,313.791 174.025 C 313.914 174.938,313.778 174.994,311.472 174.997 C 309.167 175.000,309.000 174.954,309.000 174.310 C 309.000 172.527,310.654 171.431,312.332 172.102 M76.634 176.743 C 76.696 177.934,76.505 178.342,75.669 178.812 C 73.736 179.899,71.361 178.553,72.233 176.865 C 72.679 176.003,73.633 175.678,75.583 175.726 L 76.583 175.750 76.634 176.743 M204.133 176.788 C 204.193 178.040,204.024 178.396,203.168 178.833 C 201.181 179.846,198.857 178.554,199.735 176.924 C 200.232 175.999,201.130 175.678,203.083 175.726 L 204.083 175.750 204.133 176.788 M244.132 176.760 C 244.232 178.832,241.435 180.127,239.987 178.679 C 238.484 177.176,240.037 175.653,243.000 175.724 L 244.083 175.750 244.132 176.760 M290.333 176.761 C 290.333 178.465,289.603 179.167,287.829 179.167 C 286.438 179.167,285.847 178.694,285.839 177.573 C 285.829 176.306,286.887 175.727,289.292 175.685 L 290.333 175.667 290.333 176.761 " stroke="none" fill="#2d7946" fill-rule="evenodd"></path><path id="path2" d="" stroke="none" fill="#c410090" fill-rule="evenodd"></path><path id="path3" d="" stroke="none" fill="#c410090" fill-rule="evenodd"></path><path id="path4" d="" stroke="none" fill="#c410090" fill-rule="evenodd"></path><path id="path5" d="" stroke="none" fill="#c410090" fill-rule="evenodd"></path><path id="path6" d="" stroke="none" fill="#c410090" fill-rule="evenodd"></path><path id="path7" d="" stroke="none" fill="#c410090" fill-rule="evenodd"></path><path id="path8" d="" stroke="none" fill="#c410090" fill-rule="evenodd"></path></g></svg>